<svg id="svg" version="1.1" width="400" height="400" viewBox="0 0 400 400" xmlns="http://www.w3.org/2000/svg" xmlns:xlink="http://www.w3.org/1999/xlink"><g id="svgg"><path id="path0" d="M181.297 27.249 C 176.781 28.662,170.257 34.505,165.292 41.583 C 162.415 45.684,162.348 45.702,154.176 44.514 C 129.605 40.942,117.716 41.585,106.807 47.074 C 89.542 55.762,84.239 73.803,90.873 101.276 C 91.846 105.306,91.775 105.901,90.319 105.901 C 89.574 105.901,82.427 108.076,79.107 109.314 C 55.687 118.041,47.861 134.168,53.795 161.473 C 53.947 162.172,53.674 162.759,52.387 164.503 C 23.217 204.050,33.068 263.678,76.500 310.452 C 135.727 374.235,229.811 382.812,289.952 329.910 C 322.564 301.224,344.056 255.881,345.935 211.802 C 346.036 209.434,346.194 206.744,346.287 205.826 L 346.456 204.156 349.011 202.827 C 363.516 195.280,369.546 167.839,361.073 147.928 C 359.395 143.985,360.457 141.083,365.717 135.247 C 372.700 127.498,375.044 122.083,373.850 116.456 C 371.581 105.764,359.628 103.943,351.010 112.978 C 346.635 117.565,344.305 122.930,342.899 131.659 C 342.546 133.851,342.482 133.972,341.678 133.985 C 341.211 133.993,340.255 134.219,339.553 134.488 C 338.852 134.757,337.632 134.976,336.842 134.975 L 335.407 134.973 336.651 135.275 C 337.336 135.441,338.217 135.897,338.609 136.289 C 339.015 136.695,340.276 137.247,341.539 137.573 C 354.477 140.904,360.233 150.188,360.270 167.783 C 360.323 193.107,349.583 204.602,326.671 203.742 C 314.052 203.269,308.620 199.648,308.614 191.707 C 308.610 184.354,314.985 179.846,323.516 181.170 C 326.536 181.638,327.911 181.229,327.911 179.863 C 327.911 178.576,326.826 178.173,322.109 177.710 C 314.437 176.957,310.829 174.744,310.175 170.390 C 309.132 163.452,316.386 158.221,325.302 159.482 C 328.228 159.895,330.144 159.204,330.144 157.735 C 330.144 156.428,329.353 156.140,323.173 155.205 C 316.511 154.197,313.728 151.781,313.744 147.018 C 313.762 141.427,318.225 137.502,326.088 136.161 C 328.055 135.826,330.167 135.412,330.781 135.242 C 331.396 135.071,332.544 134.914,333.333 134.893 L 334.769 134.854 333.050 134.568 C 330.101 134.079,329.883 133.870,327.588 129.346 C 323.726 121.731,319.624 115.809,313.889 109.569 L 310.664 106.061 310.871 96.013 C 311.685 56.533,303.237 45.982,274.801 50.960 C 262.185 53.169,244.351 56.734,227.273 60.461 C 222.711 61.456,212.735 63.528,205.104 65.064 L 191.228 67.858 193.773 68.104 C 206.868 69.371,229.192 67.194,254.386 62.195 C 268.273 59.439,269.871 59.224,274.944 59.418 C 297.809 60.294,305.779 80.638,302.402 129.506 C 297.745 196.916,283.415 259.304,266.714 284.879 C 257.957 298.291,246.997 305.526,240.577 302.133 C 234.666 299.008,224.546 284.909,215.007 266.507 C 212.268 261.223,211.476 260.057,210.877 260.427 C 209.963 260.992,210.867 263.884,214.672 272.568 C 220.778 286.502,227.099 297.013,233.376 303.666 C 235.896 306.338,236.032 306.116,230.855 307.788 C 200.504 317.591,166.964 311.969,141.228 292.763 C 137.059 289.652,137.046 290.270,141.388 284.960 C 162.929 258.616,184.141 244.588,211.703 238.460 C 215.774 237.555,214.752 237.425,208.928 238.106 C 185.333 240.866,163.290 254.067,140.577 279.038 C 134.273 285.969,133.105 286.143,128.290 280.869 C 118.990 270.681,107.496 240.062,107.496 225.473 L 107.496 222.640 108.775 223.447 C 115.183 227.492,121.808 225.916,125.301 219.514 L 126.227 217.816 127.409 219.425 C 134.336 228.863,145.060 225.803,146.488 213.982 C 146.927 210.347,146.763 210.531,148.465 211.754 C 157.524 218.259,165.813 211.987,163.141 200.649 C 162.600 198.353,160.534 193.800,158.317 190.017 C 156.576 187.046,156.584 187.031,159.547 187.732 C 167.175 189.538,174.212 187.110,177.512 181.534 C 178.759 179.426,178.572 179.299,181.015 183.916 C 191.982 204.646,204.087 217.311,216.906 221.470 C 227.962 225.056,240.283 222.351,248.798 214.467 C 253.769 209.866,253.532 206.292,248.484 209.729 C 245.266 211.920,245.629 212.368,244.474 204.785 C 243.356 197.439,243.349 197.537,245.032 196.172 C 247.667 194.036,248.166 193.414,248.166 192.273 C 248.166 189.898,247.290 189.905,242.475 192.319 C 231.433 197.854,219.689 200.360,206.819 199.928 L 202.315 199.777 199.565 198.314 C 192.053 194.318,184.494 185.615,180.974 176.911 C 179.863 174.162,179.870 173.788,181.051 173.250 C 181.758 172.928,182.179 173.091,184.941 174.758 C 200.278 184.012,221.029 186.606,239.776 181.614 C 244.688 180.306,244.240 180.282,244.492 181.867 C 245.761 189.857,247.519 191.052,248.175 184.370 C 248.723 178.787,248.560 179.056,252.559 177.150 C 261.829 172.733,268.098 166.733,267.100 163.233 C 266.528 161.227,264.945 161.561,261.978 164.315 C 242.866 182.053,212.276 185.778,187.579 173.375 C 184.217 171.687,184.061 171.500,185.084 170.389 C 187.853 167.380,187.463 164.442,184.677 167.317 C 180.961 171.151,179.122 171.563,177.448 168.937 C 174.598 164.467,171.551 163.170,161.239 162.033 C 154.694 161.312,146.649 160.020,139.554 158.551 C 134.485 157.502,134.317 157.510,136.364 158.709 C 141.053 161.457,149.638 163.693,160.766 165.066 C 173.181 166.597,178.025 170.629,175.964 177.718 C 173.475 186.277,162.894 187.819,152.161 181.185 C 150.386 180.088,148.845 179.278,148.738 179.386 C 148.139 179.984,150.974 185.426,155.488 192.344 C 160.832 200.537,162.027 206.234,159.060 209.380 C 154.950 213.738,147.698 208.894,141.779 197.838 C 140.602 195.640,140.200 196.113,141.020 198.730 C 145.073 211.657,143.859 220.346,137.807 221.728 C 133.937 222.612,130.240 219.102,126.916 211.391 C 124.978 206.895,124.402 206.607,124.402 210.133 C 124.402 226.670,108.974 226.123,104.035 209.410 C 100.262 196.643,102.656 182.250,110.471 170.708 C 113.609 166.074,113.438 165.900,109.130 169.346 C 106.661 171.321,106.851 171.316,104.996 169.458 C 97.434 161.882,96.809 145.183,103.532 130.331 C 106.063 124.740,106.096 125.384,102.872 117.384 C 99.501 109.017,97.322 102.521,96.185 97.448 C 87.435 58.390,111.326 40.574,154.226 54.165 C 157.583 55.228,157.500 54.853,155.405 59.490 C 152.327 66.303,149.667 75.577,150.440 76.802 C 150.718 77.242,151.258 77.352,153.140 77.352 L 155.494 77.352 156.933 75.403 C 157.725 74.330,159.665 71.680,161.244 69.512 C 168.283 59.849,172.160 56.779,177.327 56.776 C 197.734 56.765,223.670 53.486,245.295 48.185 C 250.928 46.804,261.263 43.932,261.119 43.788 C 261.066 43.735,258.525 43.977,255.472 44.326 C 235.585 46.599,221.418 46.764,201.755 44.953 C 193.495 44.192,194.474 44.810,193.445 39.708 C 191.254 28.848,187.732 25.236,181.297 27.249 M190.741 74.266 C 173.171 80.062,163.797 110.692,172.047 135.346 C 175.040 144.291,176.185 145.290,182.330 144.324 C 188.468 143.360,192.462 143.896,198.128 146.447 C 202.473 148.404,203.058 148.230,205.355 144.292 C 223.190 113.724,213.395 66.792,190.741 74.266 M199.203 79.871 C 213.128 86.488,215.545 119.119,203.740 141.123 C 202.332 143.747,202.048 144.035,201.319 143.573 C 200.962 143.348,201.029 142.930,201.693 141.266 C 206.116 130.182,203.286 116.280,195.725 111.943 C 193.411 110.616,193.399 110.626,193.238 113.796 C 192.853 121.389,186.235 124.098,184.159 117.512 C 183.526 115.507,183.021 115.385,181.946 116.980 C 179.693 120.323,178.992 130.167,180.500 137.277 C 180.949 139.392,181.120 140.857,180.941 141.037 C 176.179 145.799,170.736 122.487,173.210 107.926 C 176.392 89.196,189.363 75.196,199.203 79.871 M245.268 109.258 C 241.697 110.125,238.257 112.020,235.958 114.386 C 234.423 115.968,234.589 116.025,237.206 114.820 C 249.752 109.042,258.571 111.365,266.386 122.506 C 269.302 126.663,271.860 124.366,269.523 119.689 C 265.736 112.110,254.111 107.110,245.268 109.258 M366.218 111.428 C 373.184 115.105,371.862 123.280,362.701 133.177 C 360.753 135.281,358.496 138.051,357.685 139.333 L 356.210 141.665 355.218 140.721 C 353.756 139.330,349.777 136.857,347.725 136.064 C 345.520 135.213,345.415 134.713,346.413 129.816 C 349.135 116.461,358.782 107.503,366.218 111.428 M87.507 208.671 C 87.753 211.866,88.294 211.488,82.723 212.014 C 77.141 212.541,77.686 212.147,78.116 215.345 C 78.538 218.479,78.201 218.151,80.702 217.858 C 88.678 216.921,88.132 216.728,88.511 220.626 C 88.700 222.580,88.696 222.592,87.812 222.772 C 85.590 223.223,63.992 225.203,63.772 224.976 C 63.637 224.836,63.426 223.557,63.305 222.135 L 63.083 219.549 64.955 219.351 C 65.984 219.242,67.974 219.069,69.378 218.967 C 73.584 218.661,73.255 218.960,72.902 215.764 L 72.596 212.999 68.595 213.213 C 66.394 213.331,64.136 213.506,63.577 213.603 C 62.443 213.800,62.446 213.807,62.055 209.809 C 61.899 208.209,61.948 207.971,62.437 207.950 C 62.746 207.936,67.879 207.524,73.844 207.034 C 79.809 206.543,85.278 206.124,85.997 206.101 L 87.306 206.061 87.507 208.671 M320.633 211.170 C 330.112 213.048,331.657 213.652,333.143 216.056 C 335.815 220.377,333.120 227.409,328.418 228.384 C 326.426 228.797,310.433 226.003,309.531 225.085 C 309.190 224.737,309.940 220.735,310.441 220.234 C 310.543 220.132,314.281 220.781,318.746 221.676 C 328.109 223.553,329.506 223.406,329.506 220.546 C 329.506 218.480,328.340 218.038,317.384 215.954 C 314.490 215.404,311.958 214.901,311.759 214.837 C 311.504 214.756,311.478 214.266,311.672 213.182 C 311.823 212.335,312.028 211.176,312.128 210.606 C 312.228 210.036,312.365 209.569,312.434 209.569 C 312.502 209.569,316.191 210.290,320.633 211.170 M90.471 232.611 C 91.826 239.192,91.853 239.028,89.339 239.523 C 86.857 240.011,86.944 240.094,86.283 236.609 C 85.590 232.955,85.678 233.043,83.287 233.596 C 80.753 234.181,80.832 234.040,81.449 236.848 C 82.294 240.690,82.317 240.626,79.832 241.221 C 77.174 241.857,77.422 242.077,76.710 238.454 C 76.050 235.102,76.040 235.092,73.684 235.696 C 73.070 235.854,72.195 236.066,71.738 236.167 L 70.909 236.352 71.685 239.893 C 72.586 244.004,72.752 243.593,69.889 244.330 L 67.631 244.911 67.327 243.747 C 66.689 241.306,65.089 234.234,64.894 232.995 L 64.691 231.700 74.211 229.684 C 79.448 228.575,84.880 227.418,86.284 227.113 C 89.457 226.424,89.101 225.957,90.471 232.611 M318.285 230.788 C 327.655 232.997,331.770 240.468,326.882 246.398 C 321.752 252.621,305.308 246.876,305.270 238.847 C 305.240 232.286,310.589 228.974,318.285 230.788 M311.150 236.509 C 308.737 238.921,312.413 242.063,319.203 243.390 C 324.734 244.472,326.080 240.152,320.932 237.842 C 316.418 235.816,312.391 235.267,311.150 236.509 M305.144 245.694 C 305.824 246.439,307.989 248.987,309.953 251.356 L 313.525 255.662 317.567 257.416 C 322.274 259.459,322.128 259.266,321.035 261.996 C 320.019 264.535,320.489 264.501,315.531 262.400 L 311.483 260.684 304.362 260.515 C 300.446 260.422,297.178 260.283,297.101 260.206 C 297.024 260.129,297.470 258.949,298.092 257.584 L 299.223 255.103 302.482 255.319 C 304.275 255.437,306.244 255.615,306.858 255.713 C 307.949 255.888,307.900 255.815,304.762 252.587 L 301.549 249.282 302.529 246.811 C 303.678 243.914,303.564 243.963,305.144 245.694 M94.658 248.774 L 95.646 251.615 94.155 252.868 C 93.334 253.558,88.937 257.108,84.382 260.757 L 76.100 267.392 75.189 265.355 C 73.688 262.001,73.701 261.911,75.879 260.468 L 77.772 259.214 76.874 256.800 C 75.554 253.255,75.561 253.269,75.165 253.281 C 74.965 253.287,73.899 253.485,72.798 253.722 C 70.997 254.108,70.769 254.099,70.528 253.631 C 70.092 252.781,68.824 248.773,68.951 248.646 C 69.082 248.515,80.218 247.130,85.646 246.570 C 87.576 246.371,89.442 246.165,89.793 246.114 C 90.144 246.062,91.159 246.000,92.050 245.976 L 93.670 245.933 94.658 248.774 M84.370 251.774 C 82.089 252.132,80.191 252.444,80.151 252.468 C 80.034 252.536,81.368 255.961,81.603 256.196 C 81.721 256.314,83.114 255.453,84.699 254.282 C 86.283 253.111,87.934 251.909,88.367 251.612 C 89.300 250.970,89.558 250.960,84.370 251.774 M99.630 261.129 C 100.294 262.469,100.720 263.674,100.578 263.805 C 100.245 264.114,85.420 273.321,85.040 273.455 C 84.882 273.511,85.421 274.832,86.236 276.391 C 88.083 279.920,88.107 279.696,85.742 281.091 C 83.941 282.153,83.731 282.209,83.393 281.719 C 82.733 280.760,77.755 271.101,77.874 271.010 C 77.938 270.961,81.005 269.117,84.689 266.912 C 88.373 264.707,92.895 261.965,94.737 260.818 C 96.579 259.672,98.162 258.724,98.255 258.713 C 98.349 258.702,98.967 259.789,99.630 261.129 M296.283 273.827 C 297.658 276.117,299.170 278.671,299.643 279.503 C 300.257 280.584,301.428 281.721,303.750 283.490 C 305.536 284.851,307.199 286.119,307.445 286.308 C 307.864 286.629,305.526 290.881,304.918 290.902 C 304.817 290.906,303.106 289.630,301.117 288.066 C 298.139 285.726,297.243 285.187,296.039 285.013 C 293.720 284.678,285.047 282.888,284.623 282.656 C 284.167 282.407,286.225 278.533,286.965 278.249 C 287.218 278.152,289.098 278.516,291.143 279.059 C 293.188 279.602,294.887 280.014,294.919 279.975 C 294.950 279.936,293.925 278.469,292.640 276.715 C 289.972 273.071,289.986 273.120,291.113 271.160 C 293.004 267.873,292.575 267.652,296.283 273.827 M107.177 274.988 C 109.195 278.336,110.890 281.196,110.944 281.343 C 111.093 281.749,107.470 284.317,107.189 284.004 C 107.054 283.855,106.448 282.983,105.842 282.068 L 104.741 280.403 97.267 285.967 C 93.156 289.027,89.721 291.533,89.633 291.536 C 89.417 291.544,86.760 287.217,86.770 286.875 C 86.775 286.725,90.142 284.234,94.254 281.340 C 98.365 278.445,101.734 275.976,101.741 275.853 C 101.749 275.731,101.252 274.797,100.639 273.780 C 100.025 272.762,99.523 271.762,99.522 271.557 C 99.522 271.243,102.861 268.932,103.349 268.909 C 103.437 268.905,105.159 271.640,107.177 274.988 M114.188 285.699 L 115.153 287.028 111.897 290.064 L 108.641 293.101 110.091 294.939 C 112.006 297.365,111.743 297.410,115.308 294.037 L 118.430 291.082 119.977 292.830 C 121.992 295.105,122.197 294.644,116.986 299.538 C 114.486 301.885,110.819 305.388,108.838 307.321 L 105.236 310.837 103.669 309.087 C 101.667 306.852,101.568 307.218,105.155 303.617 C 108.631 300.128,108.561 300.546,106.139 297.775 L 105.031 296.507 101.609 299.675 L 98.188 302.843 97.586 302.060 C 97.255 301.629,96.555 300.685,96.031 299.962 L 95.077 298.649 101.845 292.281 C 105.567 288.778,109.389 285.226,110.338 284.388 L 112.064 282.863 112.644 283.616 C 112.962 284.031,113.657 284.968,114.188 285.699 M299.199 299.164 C 299.197 299.273,298.490 300.152,297.627 301.116 L 296.059 302.871 293.041 299.882 C 289.615 296.489,289.865 296.537,287.937 298.913 L 286.490 300.697 289.497 303.692 C 292.993 307.173,292.910 306.875,290.963 308.962 L 289.446 310.587 281.645 302.995 C 272.847 294.433,273.405 295.431,275.863 292.663 L 276.925 291.467 278.255 292.700 C 278.987 293.378,280.387 294.696,281.367 295.628 L 283.148 297.324 284.374 295.791 C 285.049 294.948,285.743 294.070,285.917 293.841 C 286.153 293.530,285.474 292.660,283.265 290.442 L 280.296 287.461 281.029 286.394 C 281.432 285.807,282.119 284.938,282.556 284.462 L 283.350 283.596 291.276 291.281 C 295.636 295.508,299.201 299.055,299.199 299.164 M124.540 297.733 C 126.669 299.795,126.642 299.271,124.859 303.832 C 124.057 305.882,123.469 307.626,123.551 307.709 C 123.634 307.791,125.216 306.902,127.068 305.733 L 130.434 303.607 132.203 305.134 C 134.575 307.182,134.658 307.057,128.947 310.051 C 121.962 313.713,121.865 313.786,118.973 317.533 C 117.552 319.373,116.288 320.942,116.162 321.019 C 116.037 321.097,115.130 320.388,114.148 319.444 L 112.361 317.727 113.039 316.786 C 113.411 316.269,114.704 314.598,115.911 313.074 L 118.107 310.303 120.155 303.418 C 122.135 296.765,122.388 296.013,122.645 296.013 C 122.710 296.013,123.563 296.787,124.540 297.733 M275.007 299.131 C 275.359 299.788,275.264 299.991,274.016 301.263 L 272.636 302.669 275.507 306.438 C 277.086 308.511,279.490 311.670,280.849 313.457 L 283.320 316.708 282.162 317.725 C 281.525 318.284,280.659 319.013,280.238 319.344 L 279.472 319.946 274.619 313.482 C 271.950 309.926,269.576 306.812,269.343 306.560 C 268.980 306.169,268.688 306.299,267.296 307.472 C 266.403 308.225,265.603 308.772,265.519 308.687 C 265.434 308.602,264.786 307.762,264.080 306.818 L 262.795 305.104 265.608 302.554 C 267.155 301.152,269.354 299.106,270.494 298.008 L 272.568 296.010 273.593 297.208 C 274.156 297.866,274.792 298.732,275.007 299.131 M261.828 312.201 C 269.457 324.445,268.290 323.319,271.151 321.199 C 273.361 319.560,273.463 319.520,273.909 320.115 C 274.792 321.295,275.621 323.150,275.414 323.485 C 275.002 324.151,267.539 329.531,267.187 329.416 C 266.752 329.273,255.502 311.392,255.502 310.843 C 255.502 310.472,258.572 308.134,259.058 308.134 C 259.188 308.134,260.434 309.964,261.828 312.201 M150.808 317.846 C 150.965 318.004,148.996 321.850,148.758 321.850 C 148.651 321.850,147.816 321.423,146.904 320.901 L 145.246 319.953 144.686 321.141 C 144.378 321.794,142.474 325.455,140.456 329.276 L 136.786 336.224 135.139 335.251 C 134.234 334.716,133.281 334.149,133.021 333.991 C 132.626 333.751,132.761 333.299,133.854 331.206 C 134.571 329.832,136.459 326.187,138.049 323.107 L 140.941 317.505 139.205 316.466 L 137.468 315.427 138.610 313.254 L 139.752 311.081 145.224 314.408 C 148.234 316.238,150.746 317.785,150.808 317.846 M250.204 314.954 C 250.399 315.196,253.700 319.015,257.540 323.440 C 261.381 327.866,264.382 331.579,264.211 331.692 C 264.040 331.805,263.139 332.392,262.209 332.996 L 260.518 334.094 259.038 332.407 L 257.557 330.719 255.493 331.914 C 254.358 332.572,253.385 333.144,253.331 333.186 C 253.278 333.228,253.466 334.158,253.749 335.251 C 254.033 336.345,254.189 337.437,254.097 337.677 C 253.896 338.201,250.501 339.921,250.221 339.641 C 249.667 339.088,244.749 316.985,245.146 316.836 C 245.316 316.772,246.244 316.235,247.209 315.641 C 249.172 314.434,249.690 314.315,250.204 314.954 M159.721 321.858 L 162.345 323.077 161.661 324.776 C 160.695 327.176,160.765 327.154,157.895 325.997 C 155.075 324.860,155.053 324.865,154.274 326.880 C 153.505 328.872,153.543 328.940,156.008 329.976 C 158.768 331.136,158.687 331.002,157.876 333.071 C 156.990 335.332,157.044 335.307,154.938 334.445 C 151.733 333.132,151.904 333.117,151.193 334.776 C 149.953 337.669,149.902 337.544,152.780 338.732 C 154.197 339.317,155.439 339.930,155.540 340.093 C 155.735 340.408,154.463 344.093,154.079 344.331 C 153.840 344.478,144.562 340.542,144.131 340.111 C 143.913 339.893,151.046 321.347,152.099 319.393 L 152.478 318.691 154.788 319.665 C 156.058 320.200,158.278 321.187,159.721 321.858 M240.491 322.023 C 240.896 323.171,241.174 324.163,241.108 324.228 C 241.043 324.293,239.841 324.802,238.437 325.359 C 237.033 325.916,235.844 326.412,235.794 326.461 C 235.713 326.541,236.975 330.165,237.164 330.396 C 237.206 330.446,238.353 330.046,239.713 329.506 C 241.073 328.965,242.220 328.565,242.262 328.616 C 242.380 328.759,243.700 332.380,243.700 332.559 C 243.700 332.702,242.722 333.159,239.666 334.446 L 238.663 334.868 239.466 337.119 L 240.268 339.370 241.426 338.877 C 243.385 338.042,245.629 337.161,245.797 337.161 C 245.960 337.161,246.950 339.347,247.329 340.545 C 247.562 341.279,247.184 341.483,240.530 344.222 C 236.874 345.726,237.490 346.398,234.470 337.615 C 233.087 333.593,231.443 328.894,230.817 327.173 L 229.678 324.042 231.427 323.269 C 232.389 322.843,234.288 322.062,235.647 321.534 C 237.006 321.005,238.333 320.431,238.596 320.259 C 239.483 319.679,239.752 319.929,240.491 322.023 M249.865 321.053 C 252.295 329.753,251.960 329.106,253.568 328.203 C 255.190 327.291,255.308 327.695,252.273 323.764 C 250.850 321.922,249.767 320.702,249.865 321.053 M169.801 325.250 L 174.850 326.752 174.650 327.890 C 174.031 331.408,174.035 331.406,170.553 330.331 C 168.800 329.790,168.024 329.672,167.939 329.933 C 166.839 333.292,166.914 333.777,168.601 334.228 C 169.402 334.442,170.533 334.817,171.116 335.060 L 172.176 335.503 171.649 337.427 C 170.974 339.893,171.137 339.806,168.561 339.069 C 165.603 338.224,165.708 338.186,165.241 340.271 C 165.016 341.280,164.766 342.275,164.686 342.483 C 164.595 342.719,165.410 343.119,166.868 343.553 C 168.148 343.934,169.514 344.367,169.904 344.516 L 170.612 344.785 170.062 346.794 C 169.536 348.713,169.468 348.801,168.567 348.740 C 166.971 348.633,159.112 346.312,158.955 345.902 C 158.873 345.689,159.696 342.093,160.784 337.909 C 161.871 333.726,163.116 328.832,163.550 327.033 C 163.984 325.235,164.432 323.760,164.546 323.755 C 164.660 323.751,167.025 324.423,169.801 325.250 M228.512 329.904 C 230.121 336.762,232.217 346.330,232.217 346.821 C 232.217 347.238,228.150 348.512,227.833 348.195 C 227.608 347.969,225.837 340.663,225.837 339.959 C 225.837 339.274,225.910 339.276,223.491 339.897 C 220.912 340.559,220.994 340.246,222.165 344.976 C 223.340 349.724,223.432 349.391,220.770 350.075 C 218.188 350.738,218.647 351.734,215.990 339.713 C 213.144 326.835,213.017 328.226,217.115 327.406 L 218.088 327.212 219.002 331.084 C 220.164 336.007,219.987 335.764,222.063 335.296 C 224.728 334.695,224.657 334.927,223.575 330.336 C 223.045 328.086,222.679 326.178,222.762 326.095 C 222.993 325.864,225.910 325.101,226.684 325.068 C 227.311 325.042,227.470 325.462,228.512 329.904 M183.094 328.174 L 188.357 329.037 188.302 330.586 C 188.193 333.659,188.133 333.730,185.869 333.488 L 183.883 333.275 182.807 341.996 C 182.215 346.793,181.619 350.841,181.484 350.992 C 181.211 351.296,177.699 350.969,177.071 350.581 C 176.726 350.368,177.916 340.203,179.097 333.271 C 179.235 332.462,179.157 332.399,177.740 332.194 C 175.266 331.835,175.170 331.725,175.492 329.599 C 175.885 327.006,175.924 326.940,176.942 327.138 C 177.431 327.234,180.199 327.700,183.094 328.174 M193.860 329.388 C 194.559 329.575,194.577 329.692,194.577 333.849 L 194.577 338.118 196.810 338.118 L 199.043 338.118 199.043 333.854 L 199.043 329.589 200.125 329.414 C 200.720 329.317,201.798 329.317,202.521 329.414 L 203.836 329.591 203.752 340.952 L 203.668 352.313 201.435 352.313 L 199.203 352.313 199.114 347.767 L 199.026 343.222 196.801 343.222 L 194.577 343.222 194.577 347.701 L 194.577 352.180 192.105 352.087 L 189.633 351.994 189.651 350.957 C 189.661 350.387,189.697 345.255,189.731 339.553 L 189.793 329.187 191.467 329.191 C 192.388 329.193,193.465 329.282,193.860 329.388 " stroke="none" fill="#db0606" fill-rule="evenodd"></path><path id="path1" d="M0.000 200.000 L 0.000 400.000 200.000 400.000 L 400.000 400.000 400.000 200.000 L 400.000 0.000 200.000 0.000 L 0.000 0.000 0.000 200.000 M186.305 26.795 C 189.900 27.793,191.851 31.183,193.618 39.499 C 194.115 41.837,194.572 43.801,194.634 43.863 C 195.158 44.387,218.748 45.933,226.209 45.933 C 234.342 45.933,251.853 44.639,260.447 43.404 C 263.147 43.016,263.293 43.501,260.711 44.280 C 236.049 51.727,210.268 55.932,183.962 56.800 L 173.379 57.150 171.923 58.219 C 168.642 60.627,163.438 66.634,158.752 73.421 C 155.638 77.931,152.932 79.180,150.516 77.223 L 149.764 76.614 150.338 73.794 C 151.103 70.034,153.295 63.519,155.303 59.036 C 156.200 57.032,156.899 55.362,156.856 55.324 C 156.583 55.082,149.781 53.070,146.655 52.307 C 103.475 41.763,83.987 66.488,100.603 110.736 C 101.548 113.252,103.141 117.311,104.143 119.755 C 106.268 124.940,106.270 125.094,104.270 129.390 C 97.107 144.772,97.817 163.834,105.780 169.907 L 106.853 170.726 109.168 168.975 C 114.218 165.156,114.381 165.352,110.718 170.836 C 107.707 175.344,105.777 179.378,104.471 183.892 C 99.407 201.399,105.595 221.850,115.957 221.850 C 121.131 221.850,123.553 218.506,124.043 210.686 C 124.334 206.034,124.931 206.171,127.152 211.396 C 130.469 219.199,134.111 222.481,138.200 221.352 C 143.398 219.917,144.625 211.654,141.296 200.502 C 139.742 195.296,140.286 194.576,142.588 198.794 C 148.426 209.491,156.546 214.064,159.481 208.310 C 161.389 204.570,160.074 199.912,154.788 191.693 C 149.612 183.644,147.367 178.947,148.695 178.947 C 148.945 178.947,150.507 179.808,152.166 180.859 C 162.841 187.621,173.960 185.853,175.776 177.104 C 177.215 170.174,173.333 167.229,160.287 165.352 C 146.459 163.363,137.285 160.676,134.745 157.869 C 134.031 157.079,133.771 157.053,140.997 158.507 C 148.371 159.990,156.307 161.224,162.679 161.876 C 171.387 162.767,175.214 164.571,177.831 169.016 C 178.357 169.910,178.900 170.644,179.038 170.648 C 179.721 170.665,182.502 168.928,184.129 167.467 C 185.200 166.505,186.194 165.866,186.521 165.928 C 187.812 166.173,187.108 168.883,185.337 170.485 C 184.370 171.360,184.476 171.497,187.161 172.846 C 212.071 185.361,243.149 181.742,261.793 164.155 C 264.965 161.162,266.501 160.829,267.248 162.972 C 268.614 166.892,260.332 174.527,250.522 178.390 C 249.018 178.983,249.033 178.939,248.477 184.231 C 247.792 190.744,245.957 190.730,244.624 184.203 C 244.267 182.458,243.934 180.989,243.884 180.939 C 243.834 180.889,242.158 181.269,240.158 181.782 C 220.609 186.806,200.518 184.429,185.301 175.292 C 181.933 173.270,181.728 173.191,181.021 173.655 C 178.744 175.147,187.346 189.014,193.792 194.244 C 199.520 198.892,201.665 199.677,208.637 199.679 C 221.441 199.684,231.662 197.430,241.968 192.332 C 246.854 189.915,247.042 189.861,247.902 190.640 C 249.183 191.799,248.354 193.917,245.917 195.705 C 243.848 197.224,243.674 197.719,244.177 200.649 C 244.402 201.959,244.839 204.860,245.149 207.097 C 245.458 209.334,245.797 211.161,245.902 211.156 C 246.007 211.152,246.882 210.580,247.847 209.885 C 251.259 207.428,252.116 207.241,252.524 208.864 C 253.488 212.705,242.550 220.745,233.715 222.691 C 214.611 226.899,196.196 213.382,180.549 183.666 L 178.718 180.188 177.699 181.776 C 174.185 187.252,167.083 189.763,159.968 188.045 C 157.105 187.353,157.088 187.365,158.206 189.234 C 164.575 199.885,165.654 207.201,161.571 212.054 C 158.669 215.503,152.950 215.531,148.641 212.119 C 147.079 210.881,147.160 210.825,146.893 213.317 C 145.530 226.056,134.135 229.590,127.109 219.452 L 126.233 218.187 125.584 219.499 C 122.468 225.798,115.718 227.760,109.469 224.185 L 107.722 223.185 107.897 226.824 C 108.675 243.004,119.700 271.485,128.956 281.229 C 133.348 285.853,134.254 285.639,140.894 278.414 C 163.821 253.464,185.314 240.567,208.612 237.779 C 216.115 236.882,218.654 237.352,212.839 238.563 C 188.622 243.606,168.329 255.452,150.328 275.053 C 146.294 279.446,139.891 286.954,138.436 288.997 L 137.802 289.887 141.229 292.443 C 164.780 310.002,196.175 316.448,223.953 309.429 C 227.317 308.579,234.763 306.300,235.055 306.031 C 235.124 305.967,234.190 304.870,232.979 303.595 C 224.367 294.525,207.869 262.625,210.612 260.348 C 211.630 259.503,211.816 259.738,215.025 265.933 C 225.277 285.726,235.591 299.901,241.308 302.054 C 249.063 304.974,260.711 295.659,269.847 279.231 C 283.689 254.339,296.753 196.453,301.262 140.032 C 305.226 90.433,301.151 69.695,285.965 62.192 C 278.796 58.650,273.203 58.686,254.545 62.392 C 230.474 67.175,220.179 68.363,202.488 68.399 C 188.453 68.428,187.812 68.167,197.448 66.351 C 203.989 65.118,215.681 62.691,231.260 59.333 C 244.380 56.505,262.705 52.797,269.697 51.555 C 272.153 51.119,275.598 50.506,277.352 50.192 C 282.884 49.204,291.654 49.357,294.884 50.499 C 307.504 54.959,311.820 67.052,311.158 96.097 L 310.934 105.909 313.441 108.649 C 319.252 114.996,323.736 121.408,327.360 128.549 C 328.562 130.917,329.872 133.117,330.272 133.437 C 331.233 134.208,337.723 134.874,339.206 134.355 C 339.748 134.165,340.711 133.917,341.346 133.803 C 342.497 133.597,342.502 133.590,342.703 131.631 C 344.571 113.405,360.421 100.716,370.264 109.567 C 377.277 115.872,375.745 124.385,365.527 135.885 C 360.967 141.019,359.779 144.185,361.206 147.410 C 370.240 167.839,363.740 196.039,348.269 203.529 C 346.529 204.371,346.422 204.645,346.414 208.293 C 346.338 242.869,329.768 286.051,305.695 314.408 C 249.972 380.047,151.417 381.952,84.277 318.686 C 34.941 272.197,21.159 207.934,51.415 165.454 L 53.642 162.326 52.805 158.163 C 47.405 131.299,58.038 114.805,85.965 106.723 C 88.246 106.063,90.415 105.429,90.785 105.313 L 91.458 105.104 90.403 100.621 C 83.427 70.972,90.581 52.161,111.661 44.725 C 121.864 41.125,130.115 40.960,152.233 43.912 C 162.442 45.275,162.429 45.276,164.307 42.523 C 171.968 31.285,180.503 25.183,186.305 26.795 M200.319 74.369 C 217.621 82.394,220.127 120.952,204.931 145.333 C 202.891 148.605,202.644 148.645,197.617 146.518 C 191.908 144.103,187.729 143.621,181.670 144.681 C 176.190 145.639,174.706 144.258,171.713 135.407 C 163.281 110.476,173.272 78.959,191.228 73.841 C 193.776 73.115,198.165 73.370,200.319 74.369 M192.033 79.937 C 176.886 84.008,168.198 112.904,175.597 134.609 C 177.288 139.571,178.230 141.309,179.224 141.303 C 180.923 141.293,180.985 141.053,180.221 137.443 C 178.493 129.285,179.425 119.093,182.167 116.150 C 183.136 115.109,183.706 115.413,184.348 117.316 C 186.563 123.875,192.982 120.919,192.982 113.340 C 192.982 110.560,193.250 110.321,195.230 111.331 C 203.133 115.363,206.302 128.500,202.231 140.357 C 201.679 141.964,201.304 143.356,201.397 143.449 C 201.876 143.928,202.608 142.951,204.235 139.664 C 217.717 112.421,210.090 75.085,192.033 79.937 M255.343 108.935 C 264.342 110.954,274.399 122.119,269.554 124.712 C 268.533 125.258,267.739 124.672,265.673 121.849 C 258.103 111.506,249.360 109.497,236.923 115.243 C 233.897 116.641,233.625 116.368,235.833 114.148 C 240.712 109.242,248.015 107.291,255.343 108.935 M359.135 111.458 C 353.284 113.691,348.680 120.470,346.768 129.669 C 345.621 135.189,345.564 134.928,348.166 136.057 C 350.648 137.134,354.535 139.563,355.473 140.623 L 356.082 141.310 357.593 138.996 C 358.424 137.724,360.635 135.032,362.507 133.014 C 368.133 126.949,370.066 123.421,370.128 119.101 C 370.213 113.106,364.758 109.313,359.135 111.458 M329.346 135.737 C 328.293 135.966,326.228 136.378,324.757 136.654 C 318.100 137.900,314.017 141.862,314.047 147.049 C 314.074 151.820,317.031 154.234,323.838 155.043 C 329.314 155.694,330.815 156.448,330.347 158.312 C 330.015 159.634,328.970 159.886,323.548 159.953 C 314.954 160.059,311.050 162.501,310.473 168.133 C 309.909 173.637,313.462 176.514,321.850 177.345 C 327.355 177.891,328.574 178.487,328.095 180.398 C 327.832 181.447,326.329 181.805,323.750 181.434 C 314.794 180.145,308.350 184.919,308.842 192.479 C 309.322 199.873,314.637 203.077,326.999 203.424 C 349.680 204.061,359.951 193.105,359.964 168.262 C 359.974 150.502,355.284 142.428,342.490 138.176 C 340.421 137.488,338.555 136.693,338.343 136.409 C 337.531 135.318,332.877 134.971,329.346 135.737 M73.135 207.316 C 67.306 207.786,62.461 208.246,62.369 208.338 C 62.276 208.431,62.295 209.625,62.410 210.991 L 62.620 213.475 64.564 213.282 C 65.633 213.176,67.896 212.995,69.594 212.879 L 72.681 212.668 72.883 213.750 C 73.391 216.470,73.242 218.976,72.568 219.037 C 72.217 219.068,69.959 219.269,67.550 219.483 C 63.363 219.855,63.176 219.902,63.307 220.542 C 63.382 220.911,63.533 222.037,63.643 223.046 C 63.752 224.055,63.951 224.880,64.084 224.880 C 64.854 224.880,87.047 222.621,87.648 222.481 C 88.341 222.320,88.364 222.216,88.166 220.167 C 87.894 217.363,88.191 217.491,83.083 217.978 C 77.838 218.478,78.272 218.698,77.850 215.326 C 77.433 211.983,77.084 212.237,82.734 211.771 L 87.477 211.379 87.282 209.757 C 87.175 208.864,87.086 207.739,87.084 207.257 C 87.081 206.162,87.491 206.160,73.135 207.316 M312.442 210.606 C 312.178 211.717,311.689 214.508,311.749 214.558 C 311.778 214.582,315.433 215.317,319.871 216.191 C 329.046 217.997,329.506 218.206,329.506 220.574 C 329.506 221.991,328.740 223.009,327.359 223.428 C 326.941 223.555,323.344 222.968,318.638 222.005 C 314.232 221.104,310.588 220.413,310.540 220.470 C 310.152 220.930,309.547 224.950,309.850 225.052 C 310.515 225.274,322.634 227.711,324.776 228.054 C 330.325 228.940,333.947 225.693,333.968 219.814 C 333.983 215.334,331.921 213.755,323.923 212.125 C 317.498 210.815,312.864 209.888,312.739 209.888 C 312.669 209.888,312.535 210.211,312.442 210.606 M85.965 227.513 C 84.386 227.851,79.864 228.821,75.917 229.668 C 71.970 230.514,67.915 231.373,66.906 231.575 C 64.668 232.024,64.703 231.575,66.349 238.643 C 67.856 245.111,67.473 244.525,69.858 244.019 C 72.307 243.499,72.240 243.684,71.409 239.725 C 70.589 235.816,70.440 236.124,73.504 235.411 C 76.398 234.739,76.291 234.645,77.022 238.481 L 77.577 241.396 79.498 240.947 C 82.083 240.344,81.985 240.528,81.314 237.562 C 80.442 233.707,80.344 233.935,83.130 233.315 C 86.020 232.672,85.838 232.502,86.599 236.548 C 86.910 238.201,87.279 239.553,87.418 239.553 C 88.342 239.553,91.004 238.719,91.131 238.390 C 91.285 237.989,89.464 228.359,89.053 227.404 C 88.856 226.945,88.564 226.955,85.965 227.513 M311.003 230.920 C 303.423 233.226,303.832 242.769,311.671 246.508 C 321.251 251.076,328.549 248.472,328.549 240.486 C 328.549 234.473,318.082 228.767,311.003 230.920 M316.847 236.070 C 322.730 237.572,325.273 239.815,323.964 242.345 C 322.903 244.398,320.044 244.415,314.815 242.398 C 307.094 239.421,308.827 234.023,316.847 236.070 M302.899 246.816 C 301.823 249.633,301.637 249.151,305.167 252.695 C 306.869 254.403,308.196 255.854,308.118 255.919 C 308.039 255.985,306.108 255.869,303.828 255.662 C 299.070 255.231,299.510 255.066,298.416 257.690 C 297.334 260.285,296.914 260.112,304.572 260.223 L 311.164 260.318 315.403 262.109 C 320.102 264.094,319.859 264.124,320.990 261.413 L 321.785 259.510 317.544 257.643 L 313.303 255.777 308.770 250.374 C 306.276 247.402,304.121 244.899,303.981 244.813 C 303.840 244.726,303.353 245.627,302.899 246.816 M81.978 247.218 C 73.488 248.198,69.492 248.743,69.285 248.950 C 69.172 249.063,70.372 253.056,70.692 253.630 C 70.754 253.741,71.769 253.629,72.948 253.382 C 75.580 252.830,75.723 252.882,76.320 254.600 C 76.584 255.360,77.097 256.722,77.460 257.628 L 78.119 259.275 76.079 260.605 C 73.803 262.087,73.859 261.713,75.394 265.170 L 76.217 267.023 85.786 259.330 L 95.354 251.637 94.408 249.043 C 93.887 247.616,93.461 246.405,93.461 246.350 C 93.461 246.071,88.968 246.411,81.978 247.218 M89.622 250.957 C 89.615 251.089,89.005 251.579,88.266 252.047 C 87.527 252.514,85.845 253.698,84.530 254.677 C 83.214 255.655,81.936 256.421,81.691 256.378 C 81.333 256.315,79.553 252.398,79.829 252.280 C 80.790 251.871,89.635 250.676,89.622 250.957 M94.896 261.000 C 93.142 262.087,88.692 264.790,85.008 267.006 C 80.750 269.567,78.338 271.203,78.387 271.494 C 78.448 271.849,83.398 281.481,83.744 281.916 C 83.909 282.124,87.400 279.707,87.400 279.385 C 87.400 279.198,86.738 277.831,85.929 276.347 C 85.120 274.863,84.510 273.606,84.574 273.554 C 84.637 273.502,86.196 272.527,88.038 271.388 C 91.558 269.211,99.747 264.093,100.242 263.761 C 100.471 263.606,98.449 258.995,98.162 259.017 C 98.120 259.020,96.651 259.912,94.896 261.000 M291.743 270.795 C 290.285 273.281,290.181 272.801,293.026 276.724 C 294.366 278.571,295.385 280.160,295.291 280.254 C 295.197 280.348,293.347 279.931,291.180 279.327 C 286.748 278.092,287.057 278.014,285.530 280.744 L 284.525 282.541 291.066 283.815 L 297.606 285.088 300.680 287.441 C 302.371 288.734,304.011 289.982,304.323 290.213 C 304.832 290.589,305.029 290.430,306.214 288.685 L 307.536 286.738 306.799 286.129 C 306.393 285.795,304.747 284.544,303.141 283.351 C 300.301 281.239,300.161 281.073,297.946 277.193 C 296.695 275.000,295.046 272.221,294.283 271.017 L 292.896 268.828 291.743 270.795 M101.362 270.277 C 99.551 271.494,99.550 271.503,100.949 273.699 C 101.558 274.656,102.055 275.582,102.054 275.758 C 102.050 276.059,100.140 277.482,91.547 283.586 C 86.504 287.169,86.822 286.645,88.260 288.996 C 89.796 291.508,88.976 291.742,95.518 286.922 C 98.613 284.641,101.992 282.158,103.025 281.404 L 104.905 280.033 106.080 281.882 C 106.726 282.900,107.295 283.778,107.344 283.834 C 107.442 283.945,110.686 281.668,110.686 281.489 C 110.686 281.147,103.427 269.408,103.175 269.341 C 103.008 269.298,102.192 269.719,101.362 270.277 M103.448 291.128 L 95.420 298.683 96.366 299.979 C 98.417 302.793,97.829 302.857,101.551 299.410 C 105.435 295.813,105.062 295.911,106.765 298.042 C 108.770 300.549,108.821 300.340,105.376 303.736 C 101.893 307.168,101.982 306.716,104.256 309.393 L 105.189 310.492 111.845 304.107 C 115.506 300.595,119.179 297.086,120.009 296.309 L 121.517 294.896 119.988 293.177 L 118.460 291.459 115.358 294.374 C 113.652 295.977,112.136 297.289,111.988 297.289 C 111.727 297.289,109.150 294.383,108.623 293.496 C 108.434 293.177,109.272 292.191,111.606 289.987 L 114.852 286.922 113.552 285.247 C 111.814 283.009,112.496 282.612,103.448 291.128 M281.942 285.656 L 280.595 287.440 283.570 290.428 C 286.941 293.813,286.884 293.362,284.309 296.288 L 283.084 297.681 280.027 294.788 L 276.971 291.895 276.035 292.917 C 273.725 295.442,273.090 294.345,281.705 302.710 L 289.390 310.172 290.788 308.693 C 292.564 306.813,292.682 307.181,289.182 303.696 L 286.179 300.705 287.804 298.678 C 289.834 296.145,289.537 296.093,293.077 299.601 L 296.054 302.552 297.162 301.276 C 297.772 300.574,298.403 299.769,298.564 299.486 C 298.800 299.074,297.313 297.474,291.074 291.422 L 283.289 283.871 281.942 285.656 M121.695 299.099 C 121.210 300.647,120.266 303.820,119.597 306.149 L 118.382 310.384 115.496 314.037 L 112.611 317.689 114.239 319.211 C 116.203 321.048,115.693 321.282,119.058 317.001 L 121.848 313.451 126.956 310.786 C 129.765 309.320,132.481 307.867,132.991 307.557 L 133.917 306.993 132.180 305.461 L 130.442 303.929 126.773 306.233 C 124.755 307.501,123.038 308.471,122.957 308.390 C 122.876 308.309,123.527 306.470,124.403 304.303 C 126.343 299.506,126.352 300.010,124.288 297.971 L 122.578 296.283 121.695 299.099 M271.434 297.476 C 270.830 298.105,268.720 300.065,266.746 301.831 L 263.157 305.041 263.716 305.898 C 264.023 306.368,264.597 307.155,264.991 307.645 L 265.708 308.536 267.137 307.219 C 269.063 305.443,268.575 305.069,274.359 312.749 L 279.516 319.597 280.348 318.998 C 280.806 318.669,281.569 317.990,282.045 317.489 L 282.910 316.578 280.008 312.755 C 278.412 310.652,276.025 307.521,274.705 305.798 L 272.304 302.664 273.765 301.204 L 275.226 299.743 273.938 298.037 C 272.411 296.014,272.763 296.093,271.434 297.476 M257.173 309.607 C 255.201 310.987,254.629 309.572,261.663 320.734 C 265.080 326.158,267.062 329.013,267.391 328.987 C 267.898 328.946,272.262 325.892,274.322 324.135 L 275.439 323.183 274.641 321.693 C 273.557 319.667,273.621 319.671,271.110 321.503 C 268.325 323.535,268.767 323.689,266.372 319.856 C 265.249 318.058,263.188 314.757,261.792 312.520 C 258.883 307.856,259.299 308.118,257.173 309.607 M138.837 313.327 L 137.850 315.209 139.419 316.185 C 141.443 317.443,141.607 316.807,137.004 325.579 C 134.812 329.756,133.018 333.330,133.016 333.522 C 133.015 333.793,135.162 335.183,136.569 335.822 C 136.685 335.874,138.673 332.256,140.986 327.781 L 145.192 319.644 146.864 320.587 C 147.784 321.106,148.640 321.531,148.767 321.531 C 149.004 321.531,150.661 318.008,150.492 317.863 C 150.441 317.819,148.019 316.357,145.111 314.614 L 139.824 311.445 138.837 313.327 M247.293 315.913 L 245.105 317.225 245.824 320.217 C 246.995 325.091,249.451 335.903,249.831 337.857 L 250.184 339.669 252.046 338.730 C 254.134 337.675,254.089 337.794,253.411 335.178 C 253.138 334.125,252.959 333.224,253.012 333.176 C 253.066 333.129,254.109 332.482,255.329 331.739 L 257.548 330.389 259.030 332.079 L 260.512 333.768 261.915 332.924 C 262.686 332.460,263.517 331.946,263.761 331.783 C 264.216 331.478,263.978 331.177,255.675 321.509 C 254.103 319.679,252.067 317.376,251.149 316.392 L 249.481 314.602 247.293 315.913 M151.568 321.308 C 151.046 322.571,149.806 325.686,148.814 328.230 C 147.821 330.774,146.670 333.644,146.255 334.609 C 144.567 338.541,144.173 339.831,144.583 340.092 C 145.152 340.452,151.467 343.222,152.837 343.711 L 153.999 344.126 154.671 342.370 C 155.040 341.404,155.343 340.505,155.343 340.373 C 155.343 340.241,154.123 339.589,152.632 338.925 C 151.140 338.260,149.920 337.616,149.920 337.494 C 149.920 337.243,151.518 333.238,151.690 333.057 C 151.751 332.993,152.899 333.398,154.241 333.957 C 155.583 334.515,156.727 334.927,156.783 334.871 C 156.895 334.759,158.214 331.459,158.214 331.291 C 158.214 331.234,157.137 330.717,155.821 330.144 C 154.506 329.570,153.429 328.924,153.429 328.708 C 153.429 328.378,154.646 325.121,154.901 324.769 C 154.945 324.707,156.215 325.122,157.722 325.691 C 159.229 326.260,160.505 326.669,160.556 326.600 C 161.397 325.483,161.950 323.100,161.433 322.823 C 160.846 322.508,154.459 319.755,153.213 319.278 C 152.580 319.036,152.433 319.218,151.568 321.308 M252.485 323.645 C 253.967 325.553,255.181 327.209,255.182 327.325 C 255.185 327.719,252.204 329.206,251.940 328.942 C 251.653 328.655,249.451 321.010,249.445 320.282 C 249.441 319.706,249.315 319.567,252.485 323.645 M235.088 321.976 C 232.895 322.892,230.857 323.734,230.559 323.846 C 230.068 324.031,230.108 324.299,230.990 326.698 C 232.138 329.823,237.321 344.838,237.321 345.040 C 237.321 345.269,246.557 341.625,247.117 341.174 C 247.281 341.042,245.817 337.480,245.597 337.480 C 245.462 337.480,244.195 337.975,242.780 338.581 C 241.366 339.186,240.140 339.569,240.055 339.431 C 239.823 339.056,238.297 334.801,238.372 334.737 C 238.408 334.707,239.549 334.222,240.909 333.659 C 242.269 333.096,243.381 332.590,243.381 332.535 C 243.381 332.479,243.073 331.628,242.696 330.644 C 241.928 328.636,242.065 328.659,238.961 330.025 C 236.897 330.933,236.950 330.960,236.061 328.524 C 235.236 326.260,235.172 326.359,238.214 325.186 C 239.495 324.692,240.609 324.181,240.690 324.050 C 240.879 323.745,239.580 320.246,239.291 320.282 C 239.172 320.297,237.281 321.059,235.088 321.976 M164.593 324.248 C 164.593 324.366,163.354 329.263,161.840 335.130 C 160.326 340.997,159.149 345.858,159.224 345.933 C 159.415 346.124,166.755 348.223,168.140 348.483 L 169.277 348.696 169.750 346.759 L 170.224 344.821 167.488 343.993 C 164.046 342.952,164.141 343.069,164.792 340.639 C 165.518 337.930,165.457 337.965,168.115 338.717 C 170.831 339.485,170.790 339.499,171.253 337.663 C 171.815 335.432,171.785 335.380,169.617 334.775 C 166.402 333.879,166.501 334.003,167.140 331.670 C 167.793 329.282,167.895 329.245,171.076 330.255 L 173.519 331.031 173.824 329.869 C 173.991 329.231,174.172 328.285,174.225 327.769 L 174.322 326.829 170.335 325.629 C 165.593 324.201,164.593 323.961,164.593 324.248 M225.040 325.602 C 223.987 325.862,223.095 326.100,223.058 326.131 C 223.020 326.161,223.418 328.102,223.943 330.443 C 224.467 332.784,224.857 334.728,224.809 334.763 C 224.575 334.931,220.789 335.885,220.355 335.885 C 219.983 335.885,219.636 334.930,218.970 332.075 C 217.833 327.198,218.017 327.440,215.831 327.929 C 213.624 328.423,213.639 327.733,215.639 336.593 C 216.521 340.502,217.560 345.175,217.949 346.978 L 218.656 350.256 219.615 350.062 C 220.143 349.955,221.094 349.736,221.729 349.574 L 222.885 349.280 222.306 346.809 C 221.988 345.450,221.517 343.443,221.260 342.349 L 220.792 340.360 222.119 340.016 C 222.848 339.827,223.943 339.541,224.552 339.380 C 225.973 339.005,225.897 338.872,226.945 343.541 C 227.437 345.734,227.931 347.631,228.041 347.758 C 228.232 347.976,231.470 347.265,231.803 346.932 C 231.953 346.782,227.573 326.725,227.154 325.645 C 226.972 325.175,226.781 325.171,225.040 325.602 M175.892 329.182 C 175.773 330.232,175.659 331.197,175.637 331.326 C 175.616 331.455,176.459 331.708,177.512 331.889 C 179.385 332.210,179.424 332.237,179.332 333.174 C 179.281 333.700,178.737 337.773,178.123 342.225 C 177.509 346.677,177.049 350.352,177.100 350.392 C 177.695 350.859,181.193 351.017,181.320 350.583 C 181.447 350.151,182.727 340.354,183.366 334.928 C 183.594 332.994,183.605 332.989,186.603 333.356 L 187.719 333.493 187.989 331.477 C 188.138 330.368,188.205 329.407,188.139 329.341 C 188.036 329.238,176.770 327.273,176.283 327.273 C 176.187 327.273,176.011 328.132,175.892 329.182 M189.822 340.628 L 189.759 351.751 190.494 351.948 C 190.898 352.056,191.910 352.146,192.743 352.149 L 194.258 352.153 194.258 347.528 L 194.258 342.903 196.810 342.903 L 199.362 342.903 199.362 347.528 L 199.362 352.153 201.435 352.153 L 203.509 352.153 203.509 340.829 L 203.509 329.506 201.435 329.506 L 199.362 329.506 199.362 333.971 L 199.362 338.437 196.810 338.437 L 194.258 338.437 194.258 333.971 L 194.258 329.506 192.072 329.506 L 189.885 329.506 189.822 340.628 " stroke="none" fill="#fcfbfb" fill-rule="evenodd"></path><path id="path2" d="M183.493 26.695 C 183.800 26.775,184.302 26.775,184.609 26.695 C 184.916 26.615,184.665 26.549,184.051 26.549 C 183.437 26.549,183.186 26.615,183.493 26.695 M171.112 34.211 L 170.175 35.247 171.212 34.310 C 171.782 33.795,172.249 33.329,172.249 33.274 C 172.249 33.027,171.986 33.244,171.112 34.211 M129.585 42.006 C 129.892 42.086,130.395 42.086,130.702 42.006 C 131.009 41.926,130.758 41.860,130.144 41.860 C 129.530 41.860,129.278 41.926,129.585 42.006 M225.130 46.169 C 226.057 46.233,227.493 46.233,228.320 46.167 C 229.148 46.102,228.389 46.049,226.635 46.050 C 224.880 46.050,224.203 46.104,225.130 46.169 M205.502 68.481 C 205.809 68.562,206.312 68.562,206.619 68.481 C 206.926 68.401,206.675 68.336,206.061 68.336 C 205.447 68.336,205.195 68.401,205.502 68.481 M94.513 80.702 C 94.513 81.667,94.573 82.061,94.646 81.579 C 94.719 81.096,94.719 80.307,94.646 79.825 C 94.573 79.342,94.513 79.737,94.513 80.702 M94.509 85.008 C 94.511 85.885,94.573 86.206,94.647 85.721 C 94.720 85.236,94.718 84.519,94.642 84.126 C 94.567 83.734,94.507 84.131,94.509 85.008 M311.128 89.633 C 311.128 91.826,311.179 92.723,311.241 91.627 C 311.303 90.530,311.303 88.736,311.241 87.640 C 311.179 86.543,311.128 87.440,311.128 89.633 M302.846 108.612 C 302.847 112.297,302.893 113.760,302.950 111.865 C 303.006 109.969,303.006 106.955,302.949 105.166 C 302.892 103.377,302.846 104.928,302.846 108.612 M374.237 118.979 C 374.237 119.593,374.302 119.844,374.383 119.537 C 374.463 119.230,374.463 118.728,374.383 118.421 C 374.302 118.114,374.237 118.365,374.237 118.979 M98.970 148.963 C 98.970 149.753,99.033 150.076,99.109 149.681 C 99.185 149.286,99.185 148.640,99.109 148.246 C 99.033 147.851,98.970 148.174,98.970 148.963 M98.958 151.834 C 98.958 152.448,99.023 152.699,99.103 152.392 C 99.184 152.085,99.184 151.583,99.103 151.276 C 99.023 150.969,98.958 151.220,98.958 151.834 M221.451 184.271 C 221.758 184.351,222.261 184.351,222.568 184.271 C 222.875 184.191,222.624 184.125,222.010 184.125 C 221.396 184.125,221.144 184.191,221.451 184.271 M308.527 191.707 C 308.527 192.321,308.593 192.572,308.673 192.265 C 308.753 191.958,308.753 191.455,308.673 191.148 C 308.593 190.841,308.527 191.093,308.527 191.707 M208.064 199.916 C 208.902 199.982,210.194 199.981,210.935 199.914 C 211.675 199.847,210.989 199.793,209.410 199.794 C 207.831 199.795,207.225 199.850,208.064 199.916 M163.710 203.828 C 163.710 204.442,163.776 204.693,163.856 204.386 C 163.936 204.079,163.936 203.577,163.856 203.270 C 163.776 202.963,163.710 203.214,163.710 203.828 M35.481 213.078 C 35.481 213.692,35.546 213.943,35.627 213.636 C 35.707 213.329,35.707 212.827,35.627 212.520 C 35.546 212.213,35.481 212.464,35.481 213.078 M35.481 220.734 C 35.481 221.348,35.546 221.599,35.627 221.292 C 35.707 220.985,35.707 220.482,35.627 220.175 C 35.546 219.868,35.481 220.120,35.481 220.734 M312.679 235.627 C 312.986 235.707,313.489 235.707,313.796 235.627 C 314.103 235.546,313.852 235.481,313.238 235.481 C 312.624 235.481,312.372 235.546,312.679 235.627 M302.711 250.558 C 303.306 251.172,303.865 251.675,303.953 251.675 C 304.041 251.675,303.625 251.172,303.030 250.558 C 302.435 249.944,301.876 249.442,301.789 249.442 C 301.701 249.442,302.116 249.944,302.711 250.558 M306.942 260.516 C 307.427 260.589,308.145 260.587,308.537 260.512 C 308.929 260.436,308.533 260.376,307.656 260.378 C 306.778 260.381,306.457 260.443,306.942 260.516 M285.008 285.486 C 285.872 286.364,286.651 287.081,286.738 287.081 C 286.826 287.081,286.191 286.364,285.327 285.486 C 284.463 284.609,283.684 283.892,283.597 283.892 C 283.509 283.892,284.144 284.609,285.008 285.486 M282.137 289.314 C 283.001 290.191,283.780 290.909,283.868 290.909 C 283.955 290.909,283.320 290.191,282.456 289.314 C 281.592 288.437,280.813 287.719,280.726 287.719 C 280.638 287.719,281.273 288.437,282.137 289.314 M100.937 293.222 L 100.000 294.258 101.037 293.322 C 102.003 292.448,102.220 292.185,101.974 292.185 C 101.919 292.185,101.452 292.652,100.937 293.222 M296.013 296.172 C 296.608 296.786,297.167 297.289,297.254 297.289 C 297.342 297.289,296.927 296.786,296.332 296.172 C 295.737 295.558,295.178 295.056,295.090 295.056 C 295.002 295.056,295.418 295.558,296.013 296.172 M235.885 298.246 C 236.570 298.947,237.203 299.522,237.291 299.522 C 237.378 299.522,236.889 298.947,236.204 298.246 C 235.519 297.544,234.886 296.970,234.799 296.970 C 234.711 296.970,235.200 297.544,235.885 298.246 M293.142 300.000 C 294.625 301.491,295.911 302.711,295.999 302.711 C 296.086 302.711,294.944 301.491,293.461 300.000 C 291.977 298.509,290.692 297.289,290.604 297.289 C 290.516 297.289,291.658 298.509,293.142 300.000 M243.780 302.931 C 244.087 303.011,244.589 303.011,244.896 302.931 C 245.203 302.851,244.952 302.785,244.338 302.785 C 243.724 302.785,243.473 302.851,243.780 302.931 M104.608 304.226 L 103.509 305.423 104.705 304.323 C 105.818 303.300,106.048 303.030,105.804 303.030 C 105.751 303.030,105.213 303.569,104.608 304.226 M289.633 304.087 C 289.633 304.142,290.100 304.608,290.670 305.124 L 291.707 306.061 290.770 305.024 C 289.896 304.058,289.633 303.841,289.633 304.087 M109.549 306.300 L 108.612 307.337 109.649 306.400 C 110.615 305.526,110.832 305.263,110.586 305.263 C 110.531 305.263,110.065 305.730,109.549 306.300 M203.907 312.501 C 204.215 312.581,204.717 312.581,205.024 312.501 C 205.331 312.420,205.080 312.355,204.466 312.355 C 203.852 312.355,203.600 312.420,203.907 312.501 M190.351 329.412 C 190.746 329.488,191.392 329.488,191.786 329.412 C 192.181 329.336,191.858 329.273,191.069 329.273 C 190.279 329.273,189.956 329.336,190.351 329.412 M194.404 333.887 C 194.416 337.548,194.497 338.275,194.896 338.304 C 195.159 338.323,195.199 338.279,194.985 338.207 C 194.711 338.114,194.565 336.803,194.492 333.790 L 194.390 329.505 194.404 333.887 M199.117 330.463 C 199.117 331.077,199.183 331.328,199.263 331.021 C 199.343 330.714,199.343 330.211,199.263 329.904 C 199.183 329.597,199.117 329.848,199.117 330.463 M203.651 341.946 C 203.651 347.472,203.694 349.733,203.747 346.970 C 203.801 344.207,203.801 339.685,203.747 336.922 C 203.694 334.159,203.651 336.419,203.651 341.946 M194.354 345.136 C 194.354 346.100,194.414 346.495,194.487 346.013 C 194.560 345.530,194.560 344.741,194.487 344.258 C 194.414 343.776,194.354 344.171,194.354 345.136 M192.743 364.813 C 193.050 364.893,193.553 364.893,193.860 364.813 C 194.167 364.733,193.915 364.667,193.301 364.667 C 192.687 364.667,192.436 364.733,192.743 364.813 M200.877 364.818 C 201.272 364.894,201.918 364.894,202.313 364.818 C 202.707 364.742,202.384 364.680,201.595 364.680 C 200.805 364.680,200.482 364.742,200.877 364.818 " stroke="none" fill="#f19898" fill-rule="evenodd"></path><path id="path3" d="M173.026 32.297 L 172.089 33.333 173.126 32.396 C 173.696 31.881,174.163 31.415,174.163 31.360 C 174.163 31.113,173.899 31.330,173.026 32.297 M126.561 42.017 C 127.134 42.088,127.995 42.087,128.475 42.014 C 128.954 41.941,128.485 41.883,127.432 41.885 C 126.380 41.887,125.987 41.946,126.561 42.017 M131.983 42.017 C 132.557 42.088,133.418 42.087,133.897 42.014 C 134.377 41.941,133.907 41.883,132.855 41.885 C 131.802 41.887,131.410 41.946,131.983 42.017 M210.610 45.524 C 211.095 45.597,211.813 45.595,212.205 45.520 C 212.598 45.444,212.201 45.384,211.324 45.386 C 210.447 45.389,210.126 45.451,210.610 45.524 M240.115 45.521 C 240.512 45.597,241.086 45.594,241.391 45.514 C 241.696 45.434,241.372 45.372,240.670 45.375 C 239.968 45.379,239.719 45.444,240.115 45.521 M216.667 45.843 C 217.149 45.916,217.939 45.916,218.421 45.843 C 218.904 45.769,218.509 45.710,217.544 45.710 C 216.579 45.710,216.184 45.769,216.667 45.843 M234.057 45.845 C 234.630 45.916,235.491 45.915,235.971 45.842 C 236.450 45.769,235.981 45.711,234.928 45.713 C 233.876 45.715,233.483 45.774,234.057 45.845 M302.233 55.183 C 302.918 55.885,303.551 56.459,303.638 56.459 C 303.726 56.459,303.237 55.885,302.552 55.183 C 301.867 54.482,301.234 53.907,301.146 53.907 C 301.059 53.907,301.548 54.482,302.233 55.183 M175.209 57.013 C 176.048 57.079,177.339 57.078,178.080 57.011 C 178.820 56.944,178.134 56.891,176.555 56.892 C 174.976 56.893,174.370 56.947,175.209 57.013 M273.285 59.561 C 273.856 59.632,274.789 59.632,275.359 59.561 C 275.929 59.490,275.463 59.432,274.322 59.432 C 273.182 59.432,272.715 59.490,273.285 59.561 M168.421 61.085 C 167.646 61.874,167.084 62.520,167.172 62.520 C 167.260 62.520,167.965 61.874,168.740 61.085 C 169.515 60.295,170.077 59.649,169.989 59.649 C 169.902 59.649,169.196 60.295,168.421 61.085 M207.579 68.487 C 207.976 68.563,208.550 68.561,208.855 68.481 C 209.160 68.401,208.836 68.338,208.134 68.342 C 207.432 68.346,207.183 68.411,207.579 68.487 M195.139 79.332 C 195.536 79.409,196.110 79.406,196.415 79.326 C 196.720 79.246,196.396 79.184,195.694 79.187 C 194.992 79.191,194.743 79.256,195.139 79.332 M311.085 84.689 C 311.089 85.391,311.154 85.640,311.230 85.243 C 311.307 84.847,311.304 84.273,311.224 83.968 C 311.144 83.663,311.082 83.987,311.085 84.689 M311.096 94.896 C 311.098 95.774,311.160 96.095,311.234 95.610 C 311.307 95.125,311.305 94.407,311.229 94.015 C 311.154 93.622,311.094 94.019,311.096 94.896 M302.466 98.246 C 302.466 98.860,302.532 99.111,302.612 98.804 C 302.692 98.497,302.692 97.994,302.612 97.687 C 302.532 97.380,302.466 97.632,302.466 98.246 M310.788 103.987 C 310.788 105.128,310.846 105.594,310.917 105.024 C 310.987 104.454,310.987 103.521,310.917 102.951 C 310.846 102.380,310.788 102.847,310.788 103.987 M311.962 107.337 C 312.557 107.951,313.116 108.453,313.203 108.453 C 313.291 108.453,312.876 107.951,312.281 107.337 C 311.686 106.722,311.127 106.220,311.039 106.220 C 310.951 106.220,311.367 106.722,311.962 107.337 M215.088 108.134 C 215.088 109.099,215.147 109.494,215.220 109.011 C 215.294 108.529,215.294 107.739,215.220 107.257 C 215.147 106.774,215.088 107.169,215.088 108.134 M249.841 108.354 C 250.148 108.434,250.650 108.434,250.957 108.354 C 251.264 108.274,251.013 108.208,250.399 108.208 C 249.785 108.208,249.533 108.274,249.841 108.354 M361.962 110.911 C 362.356 110.987,363.002 110.987,363.397 110.911 C 363.792 110.835,363.469 110.773,362.679 110.773 C 361.890 110.773,361.567 110.835,361.962 110.911 M172.683 116.427 C 172.683 118.094,172.737 118.776,172.802 117.943 C 172.868 117.109,172.868 115.746,172.802 114.912 C 172.737 114.079,172.683 114.761,172.683 116.427 M61.563 119.458 C 60.788 120.247,60.226 120.893,60.314 120.893 C 60.401 120.893,61.107 120.247,61.882 119.458 C 62.657 118.668,63.219 118.022,63.131 118.022 C 63.044 118.022,62.338 118.668,61.563 119.458 M302.488 120.255 C 302.488 121.220,302.548 121.615,302.621 121.132 C 302.694 120.650,302.694 119.860,302.621 119.378 C 302.548 118.896,302.488 119.290,302.488 120.255 M168.814 121.212 C 168.814 121.826,168.880 122.077,168.960 121.770 C 169.040 121.463,169.040 120.961,168.960 120.654 C 168.880 120.347,168.814 120.598,168.814 121.212 M179.353 125.997 C 179.353 126.786,179.415 127.109,179.491 126.715 C 179.567 126.320,179.567 125.674,179.491 125.279 C 179.415 124.884,179.353 125.207,179.353 125.997 M302.154 126.794 C 302.157 127.496,302.223 127.746,302.299 127.349 C 302.375 126.952,302.372 126.378,302.293 126.073 C 302.213 125.768,302.150 126.093,302.154 126.794 M203.932 129.346 C 203.934 130.574,203.991 131.037,204.061 130.376 C 204.130 129.714,204.128 128.709,204.058 128.143 C 203.988 127.577,203.931 128.118,203.932 129.346 M179.374 130.463 C 179.374 131.778,179.430 132.317,179.499 131.659 C 179.568 131.001,179.568 129.924,179.499 129.266 C 179.430 128.608,179.374 129.147,179.374 130.463 M301.828 132.057 C 301.828 132.671,301.894 132.923,301.974 132.616 C 302.054 132.309,302.054 131.806,301.974 131.499 C 301.894 131.192,301.828 131.443,301.828 132.057 M51.475 145.614 C 51.476 147.544,51.528 148.292,51.592 147.277 C 51.655 146.262,51.655 144.683,51.590 143.768 C 51.526 142.854,51.474 143.684,51.475 145.614 M187.321 144.080 C 187.628 144.160,188.130 144.160,188.437 144.080 C 188.744 143.999,188.493 143.934,187.879 143.934 C 187.265 143.934,187.014 143.999,187.321 144.080 M322.089 159.720 C 322.659 159.791,323.593 159.791,324.163 159.720 C 324.733 159.650,324.266 159.592,323.126 159.592 C 321.986 159.592,321.519 159.650,322.089 159.720 M365.033 168.421 C 365.033 170.439,365.085 171.264,365.148 170.255 C 365.211 169.246,365.211 167.596,365.148 166.587 C 365.085 165.578,365.033 166.404,365.033 168.421 M175.758 166.667 C 176.353 167.281,176.911 167.783,176.999 167.783 C 177.087 167.783,176.672 167.281,176.077 166.667 C 175.481 166.053,174.923 165.550,174.835 165.550 C 174.747 165.550,175.162 166.053,175.758 166.667 M360.237 168.262 C 360.238 169.665,360.294 170.200,360.362 169.449 C 360.429 168.699,360.428 167.551,360.359 166.897 C 360.291 166.244,360.236 166.858,360.237 168.262 M211.563 180.124 C 211.870 180.204,212.372 180.204,212.679 180.124 C 212.986 180.044,212.735 179.978,212.121 179.978 C 211.507 179.978,211.256 180.044,211.563 180.124 M223.847 180.130 C 224.244 180.206,224.818 180.203,225.123 180.123 C 225.428 180.044,225.104 179.981,224.402 179.985 C 223.700 179.988,223.451 180.054,223.847 180.130 M216.667 180.458 C 217.500 180.523,218.864 180.523,219.697 180.458 C 220.530 180.392,219.848 180.338,218.182 180.338 C 216.515 180.338,215.833 180.392,216.667 180.458 M163.720 185.237 C 164.205 185.310,164.923 185.308,165.315 185.233 C 165.708 185.157,165.311 185.097,164.434 185.099 C 163.557 185.102,163.236 185.164,163.720 185.237 M102.502 196.970 C 102.503 198.373,102.559 198.908,102.626 198.157 C 102.694 197.407,102.693 196.259,102.624 195.606 C 102.556 194.952,102.501 195.566,102.502 196.970 M351.179 196.093 L 350.080 197.289 351.276 196.189 C 352.389 195.166,352.619 194.896,352.375 194.896 C 352.322 194.896,351.784 195.435,351.179 196.093 M327.193 203.742 C 327.939 203.809,329.159 203.809,329.904 203.742 C 330.650 203.675,330.040 203.620,328.549 203.620 C 327.057 203.620,326.447 203.675,327.193 203.742 M346.179 211.164 C 346.179 211.954,346.242 212.277,346.318 211.882 C 346.394 211.487,346.394 210.841,346.318 210.447 C 346.242 210.052,346.179 210.375,346.179 211.164 M35.481 211.164 C 35.481 211.778,35.546 212.030,35.627 211.722 C 35.707 211.415,35.707 210.913,35.627 210.606 C 35.546 210.299,35.481 210.550,35.481 211.164 M84.609 217.764 C 84.916 217.844,85.419 217.844,85.726 217.764 C 86.033 217.684,85.781 217.618,85.167 217.618 C 84.553 217.618,84.302 217.684,84.609 217.764 M71.053 219.045 C 71.447 219.121,72.093 219.121,72.488 219.045 C 72.883 218.969,72.560 218.907,71.770 218.907 C 70.981 218.907,70.658 218.969,71.053 219.045 M64.358 219.683 C 64.755 219.760,65.329 219.757,65.634 219.677 C 65.939 219.597,65.614 219.535,64.912 219.538 C 64.211 219.542,63.961 219.607,64.358 219.683 M35.487 222.807 C 35.491 223.509,35.556 223.758,35.632 223.362 C 35.709 222.965,35.706 222.391,35.626 222.086 C 35.546 221.781,35.484 222.105,35.487 222.807 M107.587 225.678 C 107.590 226.555,107.652 226.876,107.725 226.391 C 107.798 225.906,107.796 225.189,107.721 224.796 C 107.645 224.404,107.585 224.801,107.587 225.678 M115.072 226.062 C 115.467 226.138,116.112 226.138,116.507 226.062 C 116.902 225.986,116.579 225.924,115.789 225.924 C 115.000 225.924,114.677 225.986,115.072 226.062 M313.481 230.529 C 313.877 230.605,314.452 230.602,314.757 230.522 C 315.061 230.442,314.737 230.380,314.035 230.383 C 313.333 230.387,313.084 230.452,313.481 230.529 M212.045 237.546 C 212.442 237.622,213.016 237.620,213.321 237.540 C 213.626 237.460,213.301 237.397,212.600 237.401 C 211.898 237.405,211.648 237.470,212.045 237.546 M328.629 240.670 C 328.633 241.372,328.698 241.621,328.774 241.224 C 328.851 240.828,328.848 240.253,328.768 239.948 C 328.688 239.643,328.626 239.968,328.629 240.670 M319.697 249.024 C 320.004 249.104,320.506 249.104,320.813 249.024 C 321.120 248.943,320.869 248.878,320.255 248.878 C 319.641 248.878,319.390 248.943,319.697 249.024 M297.289 260.032 C 297.289 260.172,297.791 260.287,298.405 260.287 C 299.019 260.287,299.522 260.231,299.522 260.162 C 299.522 260.094,299.019 259.979,298.405 259.908 C 297.791 259.836,297.289 259.892,297.289 260.032 M309.649 260.512 C 310.044 260.588,310.690 260.588,311.085 260.512 C 311.479 260.436,311.156 260.374,310.367 260.374 C 309.577 260.374,309.254 260.436,309.649 260.512 M151.179 273.923 L 150.080 275.120 151.276 274.020 C 152.389 272.997,152.619 272.727,152.375 272.727 C 152.322 272.727,151.784 273.266,151.179 273.923 M128.230 280.802 C 128.230 280.856,128.696 281.323,129.266 281.838 L 130.303 282.775 129.366 281.738 C 128.493 280.772,128.230 280.555,128.230 280.802 M289.474 289.952 C 291.045 291.531,292.403 292.823,292.491 292.823 C 292.578 292.823,291.364 291.531,289.793 289.952 C 288.221 288.373,286.863 287.081,286.776 287.081 C 286.688 287.081,287.902 288.373,289.474 289.952 M104.770 289.713 L 103.509 291.069 104.864 289.808 C 106.125 288.635,106.367 288.357,106.125 288.357 C 106.073 288.357,105.463 288.967,104.770 289.713 M279.585 294.418 C 280.627 295.470,281.551 296.332,281.639 296.332 C 281.726 296.332,280.946 295.470,279.904 294.418 C 278.863 293.365,277.939 292.504,277.851 292.504 C 277.763 292.504,278.544 293.365,279.585 294.418 M258.832 294.498 L 257.895 295.534 258.931 294.597 C 259.502 294.082,259.968 293.616,259.968 293.561 C 259.968 293.314,259.705 293.531,258.832 294.498 M98.709 295.455 L 97.448 296.810 98.804 295.549 C 100.065 294.377,100.306 294.099,100.065 294.099 C 100.013 294.099,99.403 294.709,98.709 295.455 M113.858 295.614 L 112.759 296.810 113.955 295.711 C 115.069 294.688,115.298 294.418,115.055 294.418 C 115.001 294.418,114.463 294.956,113.858 295.614 M124.255 297.936 C 125.301 299.082,126.221 299.974,126.301 299.918 C 126.380 299.863,125.525 298.925,124.399 297.835 L 122.353 295.853 124.255 297.936 M117.529 298.644 L 116.268 300.000 117.624 298.739 C 118.884 297.566,119.126 297.289,118.885 297.289 C 118.832 297.289,118.222 297.899,117.529 298.644 M100.299 300.558 L 99.362 301.595 100.399 300.658 C 101.365 299.785,101.582 299.522,101.336 299.522 C 101.281 299.522,100.814 299.988,100.299 300.558 M284.287 305.420 L 289.308 310.518 290.188 309.574 L 291.069 308.630 290.181 309.405 L 289.293 310.179 284.280 305.250 L 279.266 300.322 284.287 305.420 M111.787 304.067 L 110.526 305.423 111.882 304.162 C 113.143 302.989,113.384 302.711,113.143 302.711 C 113.091 302.711,112.481 303.321,111.787 304.067 M131.738 305.104 C 132.334 305.718,132.892 306.220,132.980 306.220 C 133.068 306.220,132.653 305.718,132.057 305.104 C 131.462 304.490,130.904 303.987,130.816 303.987 C 130.728 303.987,131.143 304.490,131.738 305.104 M102.707 306.065 C 102.086 306.727,102.028 306.935,102.380 307.261 C 102.720 307.576,102.757 307.571,102.565 307.233 C 102.420 306.977,102.612 306.506,103.052 306.037 C 103.452 305.611,103.708 305.263,103.620 305.263 C 103.532 305.263,103.122 305.624,102.707 306.065 M193.062 312.182 C 193.369 312.262,193.872 312.262,194.179 312.182 C 194.486 312.101,194.234 312.036,193.620 312.036 C 193.006 312.036,192.755 312.101,193.062 312.182 M207.416 312.182 C 207.723 312.262,208.226 312.262,208.533 312.182 C 208.840 312.101,208.589 312.036,207.974 312.036 C 207.360 312.036,207.109 312.101,207.416 312.182 M199.451 312.516 C 200.290 312.581,201.582 312.581,202.322 312.514 C 203.063 312.447,202.376 312.393,200.797 312.394 C 199.219 312.395,198.613 312.450,199.451 312.516 M78.469 313.006 C 78.469 313.055,79.581 314.167,80.941 315.478 L 83.413 317.863 81.029 315.391 C 78.814 313.095,78.469 312.773,78.469 313.006 M297.757 322.887 L 295.853 324.880 297.847 322.976 C 298.943 321.929,299.841 321.032,299.841 320.983 C 299.841 320.747,299.526 321.035,297.757 322.887 M203.583 331.100 C 203.583 331.715,203.648 331.966,203.729 331.659 C 203.809 331.352,203.809 330.849,203.729 330.542 C 203.648 330.235,203.583 330.486,203.583 331.100 M189.867 332.376 C 189.867 332.990,189.932 333.242,190.013 332.935 C 190.093 332.628,190.093 332.125,190.013 331.818 C 189.932 331.511,189.867 331.762,189.867 332.376 M199.164 334.928 C 199.164 336.946,199.215 337.771,199.279 336.762 C 199.342 335.754,199.342 334.103,199.279 333.094 C 199.215 332.085,199.164 332.911,199.164 334.928 M199.168 347.049 C 199.168 349.418,199.218 350.387,199.280 349.203 C 199.341 348.018,199.341 346.081,199.280 344.896 C 199.218 343.712,199.168 344.681,199.168 347.049 M190.196 364.822 C 190.681 364.896,191.398 364.894,191.791 364.818 C 192.183 364.742,191.786 364.682,190.909 364.685 C 190.032 364.687,189.711 364.749,190.196 364.822 M203.433 364.819 C 203.830 364.895,204.404 364.892,204.709 364.812 C 205.014 364.733,204.689 364.670,203.987 364.674 C 203.285 364.677,203.036 364.743,203.433 364.819 " stroke="none" fill="#f9c9c9" fill-rule="evenodd"></path><path id="path4" d="M134.533 42.331 C 134.930 42.407,135.504 42.404,135.809 42.324 C 136.114 42.245,135.789 42.182,135.088 42.186 C 134.386 42.189,134.136 42.255,134.533 42.331 M212.683 45.840 C 213.080 45.916,213.654 45.913,213.959 45.833 C 214.264 45.753,213.939 45.691,213.238 45.694 C 212.536 45.698,212.286 45.763,212.683 45.840 M238.357 45.834 C 238.664 45.914,239.167 45.914,239.474 45.834 C 239.781 45.754,239.530 45.688,238.915 45.688 C 238.301 45.688,238.050 45.754,238.357 45.834 M220.024 46.167 C 220.775 46.234,221.923 46.233,222.576 46.165 C 223.229 46.096,222.616 46.041,221.212 46.042 C 219.809 46.044,219.274 46.100,220.024 46.167 M230.542 46.164 C 231.112 46.235,232.045 46.235,232.616 46.164 C 233.186 46.093,232.719 46.035,231.579 46.035 C 230.439 46.035,229.972 46.093,230.542 46.164 M127.033 49.676 C 127.867 49.742,129.230 49.742,130.064 49.676 C 130.897 49.611,130.215 49.557,128.549 49.557 C 126.882 49.557,126.200 49.611,127.033 49.676 M285.734 49.676 C 286.484 49.743,287.633 49.742,288.286 49.674 C 288.939 49.605,288.325 49.550,286.922 49.551 C 285.518 49.552,284.984 49.608,285.734 49.676 M156.550 55.134 C 156.782 55.281,156.875 55.660,156.765 56.006 C 156.586 56.569,156.600 56.573,156.931 56.058 C 157.324 55.447,157.122 54.862,156.520 54.869 C 156.250 54.873,156.258 54.949,156.550 55.134 M191.949 56.366 C 192.346 56.442,192.920 56.439,193.225 56.360 C 193.530 56.280,193.206 56.217,192.504 56.221 C 191.802 56.224,191.553 56.290,191.949 56.366 M184.450 56.688 C 184.932 56.761,185.722 56.761,186.204 56.688 C 186.687 56.615,186.292 56.555,185.327 56.555 C 184.362 56.555,183.967 56.615,184.450 56.688 M291.228 65.491 C 291.228 65.545,291.695 66.012,292.265 66.527 L 293.301 67.464 292.365 66.427 C 291.491 65.461,291.228 65.244,291.228 65.491 M211.882 68.162 C 212.189 68.243,212.691 68.243,212.998 68.162 C 213.305 68.082,213.054 68.017,212.440 68.017 C 211.826 68.017,211.575 68.082,211.882 68.162 M199.614 68.498 C 200.717 68.561,202.440 68.560,203.442 68.497 C 204.443 68.434,203.541 68.383,201.435 68.383 C 199.330 68.384,198.510 68.436,199.614 68.498 M194.338 73.594 C 194.821 73.667,195.610 73.667,196.093 73.594 C 196.575 73.521,196.180 73.461,195.215 73.461 C 194.250 73.461,193.856 73.521,194.338 73.594 M87.839 80.861 C 87.839 82.791,87.892 83.539,87.955 82.524 C 88.019 81.509,88.018 79.930,87.954 79.015 C 87.890 78.101,87.838 78.931,87.839 80.861 M152.556 77.741 C 153.041 77.814,153.759 77.812,154.151 77.737 C 154.543 77.661,154.147 77.601,153.270 77.603 C 152.392 77.606,152.071 77.668,152.556 77.741 M181.328 80.144 L 179.745 81.818 181.419 80.235 C 182.976 78.764,183.240 78.469,183.002 78.469 C 182.952 78.469,182.198 79.222,181.328 80.144 M310.777 81.499 C 310.779 82.376,310.841 82.697,310.915 82.213 C 310.988 81.728,310.986 81.010,310.910 80.618 C 310.835 80.225,310.775 80.622,310.777 81.499 M302.466 95.056 C 302.466 95.670,302.532 95.921,302.612 95.614 C 302.692 95.307,302.692 94.805,302.612 94.498 C 302.532 94.191,302.466 94.442,302.466 95.056 M310.788 98.884 C 310.788 100.024,310.846 100.490,310.917 99.920 C 310.987 99.350,310.987 98.417,310.917 97.847 C 310.846 97.277,310.788 97.743,310.788 98.884 M302.810 100.319 C 302.812 101.372,302.872 101.764,302.942 101.190 C 303.013 100.617,303.012 99.756,302.939 99.277 C 302.866 98.797,302.808 99.266,302.810 100.319 M214.747 105.263 C 214.747 105.877,214.813 106.128,214.893 105.821 C 214.973 105.514,214.973 105.012,214.893 104.705 C 214.813 104.398,214.747 104.649,214.747 105.263 M211.274 108.931 C 211.275 110.335,211.331 110.869,211.398 110.119 C 211.466 109.369,211.465 108.221,211.396 107.567 C 211.328 106.914,211.272 107.528,211.274 108.931 M362.440 107.078 C 362.747 107.158,363.250 107.158,363.557 107.078 C 363.864 106.998,363.612 106.932,362.998 106.932 C 362.384 106.932,362.133 106.998,362.440 107.078 M312.600 108.234 C 312.600 108.289,313.066 108.755,313.636 109.270 L 314.673 110.207 313.736 109.171 C 312.863 108.204,312.600 107.987,312.600 108.234 M249.036 108.683 C 249.602 108.754,250.607 108.755,251.269 108.686 C 251.931 108.617,251.467 108.559,250.239 108.558 C 249.011 108.556,248.470 108.613,249.036 108.683 M214.753 111.483 C 214.757 112.185,214.822 112.435,214.899 112.038 C 214.975 111.641,214.972 111.067,214.892 110.762 C 214.812 110.457,214.750 110.781,214.753 111.483 M351.022 112.679 L 349.761 114.035 351.116 112.774 C 352.377 111.602,352.619 111.324,352.377 111.324 C 352.325 111.324,351.715 111.934,351.022 112.679 M248.411 111.874 C 248.984 111.945,249.845 111.943,250.325 111.871 C 250.804 111.798,250.335 111.740,249.282 111.742 C 248.230 111.743,247.837 111.803,248.411 111.874 M168.857 115.630 C 168.857 117.384,168.911 118.061,168.976 117.134 C 169.040 116.208,169.040 114.772,168.974 113.945 C 168.909 113.117,168.856 113.876,168.857 115.630 M353.568 114.912 L 352.632 115.949 353.668 115.012 C 354.635 114.139,354.852 113.876,354.605 113.876 C 354.550 113.876,354.084 114.342,353.568 114.912 M266.188 115.470 C 266.873 116.172,267.506 116.746,267.594 116.746 C 267.681 116.746,267.192 116.172,266.507 115.470 C 265.822 114.769,265.190 114.195,265.102 114.195 C 265.014 114.195,265.503 114.769,266.188 115.470 M302.819 117.384 C 302.819 118.700,302.875 119.238,302.944 118.581 C 303.013 117.923,303.013 116.846,302.944 116.188 C 302.875 115.530,302.819 116.069,302.819 117.384 M370.422 118.979 C 370.422 119.769,370.484 120.092,370.560 119.697 C 370.636 119.302,370.636 118.656,370.560 118.262 C 370.484 117.867,370.422 118.190,370.422 118.979 M172.642 121.531 C 172.642 122.145,172.707 122.396,172.788 122.089 C 172.868 121.782,172.868 121.280,172.788 120.973 C 172.707 120.666,172.642 120.917,172.642 121.531 M302.484 124.880 C 302.486 125.758,302.548 126.079,302.621 125.594 C 302.695 125.109,302.693 124.391,302.617 123.999 C 302.541 123.606,302.481 124.003,302.484 124.880 M302.154 130.622 C 302.157 131.324,302.223 131.573,302.299 131.177 C 302.375 130.780,302.372 130.206,302.293 129.901 C 302.213 129.596,302.150 129.920,302.154 130.622 M301.828 135.247 C 301.828 135.861,301.894 136.112,301.974 135.805 C 302.054 135.498,302.054 134.996,301.974 134.689 C 301.894 134.382,301.828 134.633,301.828 135.247 M333.014 134.928 L 331.260 135.143 333.333 135.157 C 334.474 135.165,335.837 135.062,336.364 134.928 C 337.634 134.605,335.651 134.605,333.014 134.928 M360.267 135.646 L 359.330 136.683 360.367 135.746 C 361.333 134.872,361.550 134.609,361.304 134.609 C 361.249 134.609,360.782 135.076,360.267 135.646 M365.052 135.965 L 364.115 137.002 365.152 136.065 C 366.118 135.191,366.335 134.928,366.088 134.928 C 366.033 134.928,365.567 135.395,365.052 135.965 M98.958 146.730 C 98.958 147.344,99.023 147.596,99.103 147.289 C 99.184 146.982,99.184 146.479,99.103 146.172 C 99.023 145.865,98.958 146.116,98.958 146.730 M313.637 147.209 C 313.641 147.911,313.706 148.160,313.782 147.763 C 313.859 147.367,313.856 146.792,313.776 146.488 C 313.696 146.183,313.634 146.507,313.637 147.209 M98.958 153.748 C 98.958 154.362,99.023 154.613,99.103 154.306 C 99.184 153.999,99.184 153.497,99.103 153.190 C 99.023 152.883,98.958 153.134,98.958 153.748 M360.202 163.317 C 360.202 163.931,360.267 164.183,360.347 163.876 C 360.428 163.569,360.428 163.066,360.347 162.759 C 360.267 162.452,360.202 162.703,360.202 163.317 M364.667 164.274 C 364.667 164.888,364.733 165.140,364.813 164.833 C 364.893 164.526,364.893 164.023,364.813 163.716 C 364.733 163.409,364.667 163.660,364.667 164.274 M310.143 169.059 C 310.143 170.024,310.203 170.419,310.276 169.936 C 310.349 169.454,310.349 168.664,310.276 168.182 C 310.203 167.699,310.143 168.094,310.143 169.059 M103.987 168.521 C 103.987 168.576,104.454 169.042,105.024 169.558 L 106.061 170.494 105.124 169.458 C 104.250 168.491,103.987 168.274,103.987 168.521 M264.098 169.617 L 262.998 170.813 264.195 169.714 C 264.852 169.110,265.391 168.571,265.391 168.518 C 265.391 168.274,265.121 168.504,264.098 169.617 M364.667 172.568 C 364.667 173.182,364.733 173.433,364.813 173.126 C 364.893 172.819,364.893 172.317,364.813 172.010 C 364.733 171.703,364.667 171.954,364.667 172.568 M360.202 172.887 C 360.202 173.501,360.267 173.752,360.347 173.445 C 360.428 173.138,360.428 172.636,360.347 172.329 C 360.267 172.022,360.202 172.273,360.202 172.887 M222.408 180.443 C 222.715 180.523,223.218 180.523,223.525 180.443 C 223.832 180.363,223.581 180.297,222.967 180.297 C 222.352 180.297,222.101 180.363,222.408 180.443 M173.345 181.898 L 172.408 182.935 173.445 181.998 C 174.015 181.482,174.482 181.016,174.482 180.961 C 174.482 180.715,174.218 180.932,173.345 181.898 M320.494 181.086 C 320.889 181.162,321.535 181.162,321.930 181.086 C 322.325 181.010,322.002 180.948,321.212 180.948 C 320.423 180.948,320.100 181.010,320.494 181.086 M225.279 183.952 C 225.586 184.032,226.089 184.032,226.396 183.952 C 226.703 183.872,226.451 183.806,225.837 183.806 C 225.223 183.806,224.972 183.872,225.279 183.952 M218.427 184.282 C 219.000 184.353,219.861 184.352,220.341 184.279 C 220.820 184.206,220.351 184.148,219.298 184.150 C 218.246 184.152,217.853 184.211,218.427 184.282 M165.311 188.418 C 165.618 188.498,166.120 188.498,166.427 188.418 C 166.734 188.337,166.483 188.272,165.869 188.272 C 165.255 188.272,165.004 188.337,165.311 188.418 M354.688 198.644 L 353.589 199.841 354.785 198.741 C 355.898 197.718,356.128 197.448,355.884 197.448 C 355.831 197.448,355.292 197.986,354.688 198.644 M204.705 199.906 C 205.100 199.982,205.746 199.982,206.140 199.906 C 206.535 199.830,206.212 199.768,205.423 199.768 C 204.633 199.768,204.310 199.830,204.705 199.906 M212.520 199.901 C 212.827 199.981,213.329 199.981,213.636 199.901 C 213.943 199.821,213.692 199.755,213.078 199.755 C 212.464 199.755,212.213 199.821,212.520 199.901 M160.521 205.104 C 160.521 205.718,160.586 205.969,160.666 205.662 C 160.747 205.355,160.747 204.852,160.666 204.545 C 160.586 204.238,160.521 204.490,160.521 205.104 M346.184 207.177 C 346.186 208.054,346.248 208.375,346.321 207.890 C 346.395 207.405,346.393 206.688,346.317 206.295 C 346.241 205.903,346.181 206.300,346.184 207.177 M199.203 210.207 C 200.421 211.435,201.490 212.440,201.578 212.440 C 201.666 212.440,200.740 211.435,199.522 210.207 C 198.303 208.979,197.234 207.974,197.146 207.974 C 197.059 207.974,197.984 208.979,199.203 210.207 M124.163 209.410 C 124.167 210.112,124.232 210.361,124.309 209.964 C 124.385 209.568,124.382 208.993,124.302 208.688 C 124.222 208.383,124.160 208.708,124.163 209.410 M35.800 209.569 C 35.800 210.183,35.865 210.435,35.946 210.128 C 36.026 209.821,36.026 209.318,35.946 209.011 C 35.865 208.704,35.800 208.955,35.800 209.569 M87.474 210.526 C 87.474 211.140,87.540 211.392,87.620 211.085 C 87.700 210.778,87.700 210.275,87.620 209.968 C 87.540 209.661,87.474 209.912,87.474 210.526 M143.324 211.483 C 143.324 212.624,143.382 213.090,143.452 212.520 C 143.523 211.950,143.523 211.017,143.452 210.447 C 143.382 209.876,143.324 210.343,143.324 211.483 M71.212 212.979 C 71.519 213.059,72.022 213.059,72.329 212.979 C 72.636 212.899,72.384 212.833,71.770 212.833 C 71.156 212.833,70.905 212.899,71.212 212.979 M35.522 216.906 C 35.522 218.573,35.575 219.254,35.641 218.421 C 35.707 217.588,35.707 216.224,35.641 215.391 C 35.575 214.557,35.522 215.239,35.522 216.906 M154.948 214.580 C 155.345 214.656,155.919 214.653,156.224 214.573 C 156.529 214.493,156.204 214.431,155.502 214.435 C 154.801 214.438,154.551 214.503,154.948 214.580 M109.091 218.979 C 109.686 219.593,110.245 220.096,110.332 220.096 C 110.420 220.096,110.005 219.593,109.410 218.979 C 108.815 218.365,108.256 217.863,108.168 217.863 C 108.081 217.863,108.496 218.365,109.091 218.979 M115.394 222.235 C 115.791 222.311,116.365 222.309,116.670 222.229 C 116.975 222.149,116.651 222.086,115.949 222.090 C 115.247 222.094,114.998 222.159,115.394 222.235 M225.289 223.201 C 226.127 223.267,227.419 223.266,228.160 223.200 C 228.900 223.133,228.214 223.079,226.635 223.080 C 225.056 223.081,224.450 223.135,225.289 223.201 M35.800 224.561 C 35.800 225.175,35.865 225.427,35.946 225.120 C 36.026 224.813,36.026 224.310,35.946 224.003 C 35.865 223.696,35.800 223.947,35.800 224.561 M135.969 225.109 C 136.454 225.183,137.172 225.181,137.564 225.105 C 137.957 225.029,137.560 224.969,136.683 224.972 C 135.805 224.974,135.484 225.036,135.969 225.109 M326.077 228.609 C 326.384 228.689,326.886 228.689,327.193 228.609 C 327.500 228.529,327.249 228.463,326.635 228.463 C 326.021 228.463,325.770 228.529,326.077 228.609 M210.287 237.859 C 210.594 237.940,211.096 237.940,211.404 237.859 C 211.711 237.779,211.459 237.714,210.845 237.714 C 210.231 237.714,209.980 237.779,210.287 237.859 M302.163 260.522 C 303.001 260.588,304.293 260.587,305.034 260.520 C 305.774 260.453,305.088 260.399,303.509 260.400 C 301.930 260.401,301.324 260.456,302.163 260.522 M148.640 270.415 L 144.657 274.482 148.724 270.499 C 150.961 268.309,152.791 266.479,152.791 266.432 C 152.791 266.203,152.339 266.637,148.640 270.415 M154.220 270.574 L 151.037 273.844 154.306 270.660 C 156.104 268.909,157.576 267.438,157.576 267.390 C 157.576 267.160,157.178 267.537,154.220 270.574 M137.306 282.376 L 136.045 283.732 137.400 282.471 C 138.661 281.299,138.903 281.021,138.661 281.021 C 138.609 281.021,137.999 281.631,137.306 282.376 M107.954 286.523 L 107.018 287.560 108.054 286.623 C 109.021 285.750,109.238 285.486,108.991 285.486 C 108.936 285.486,108.470 285.953,107.954 286.523 M111.782 290.032 L 110.845 291.069 111.882 290.132 C 112.848 289.258,113.065 288.995,112.819 288.995 C 112.764 288.995,112.297 289.462,111.782 290.032 M103.013 291.148 L 101.914 292.344 103.110 291.245 C 104.223 290.222,104.453 289.952,104.209 289.952 C 104.156 289.952,103.618 290.490,103.013 291.148 M117.205 292.265 L 116.268 293.301 117.305 292.365 C 118.271 291.491,118.488 291.228,118.241 291.228 C 118.187 291.228,117.720 291.695,117.205 292.265 M293.142 293.301 C 294.095 294.266,294.946 295.056,295.034 295.056 C 295.122 295.056,294.414 294.266,293.461 293.301 C 292.508 292.337,291.657 291.547,291.569 291.547 C 291.481 291.547,292.189 292.337,293.142 293.301 M281.021 295.534 C 281.974 296.499,282.825 297.289,282.913 297.289 C 283.001 297.289,282.293 296.499,281.340 295.534 C 280.387 294.569,279.535 293.780,279.448 293.780 C 279.360 293.780,280.068 294.569,281.021 295.534 M96.970 296.810 C 96.195 297.600,95.633 298.246,95.720 298.246 C 95.808 298.246,96.514 297.600,97.289 296.810 C 98.063 296.021,98.626 295.375,98.538 295.375 C 98.450 295.375,97.745 296.021,96.970 296.810 M112.749 296.343 C 112.409 296.718,111.951 296.912,111.663 296.803 C 111.261 296.650,111.242 296.691,111.567 297.019 C 111.893 297.347,112.136 297.259,112.836 296.559 C 113.312 296.083,113.619 295.694,113.519 295.694 C 113.419 295.694,113.072 295.986,112.749 296.343 M119.281 297.209 L 118.182 298.405 119.378 297.306 C 120.491 296.283,120.721 296.013,120.477 296.013 C 120.424 296.013,119.886 296.551,119.281 297.209 M271.591 297.049 L 270.654 298.086 271.691 297.149 C 272.261 296.634,272.727 296.167,272.727 296.113 C 272.727 295.866,272.464 296.083,271.591 297.049 M277.671 299.203 C 278.890 300.431,279.959 301.435,280.047 301.435 C 280.134 301.435,279.209 300.431,277.990 299.203 C 276.772 297.974,275.703 296.970,275.615 296.970 C 275.527 296.970,276.453 297.974,277.671 299.203 M102.375 298.804 L 101.276 300.000 102.472 298.901 C 103.585 297.878,103.815 297.608,103.571 297.608 C 103.518 297.608,102.980 298.146,102.375 298.804 M107.964 300.109 C 108.121 300.385,107.772 301.006,106.980 301.863 L 105.752 303.190 107.172 301.840 C 108.353 300.717,108.519 300.422,108.157 300.085 C 107.803 299.757,107.767 299.762,107.964 300.109 M287.879 302.392 C 288.743 303.270,289.521 303.987,289.609 303.987 C 289.697 303.987,289.062 303.270,288.198 302.392 C 287.334 301.515,286.555 300.797,286.467 300.797 C 286.380 300.797,287.015 301.515,287.879 302.392 M113.557 302.552 C 112.782 303.341,112.220 303.987,112.307 303.987 C 112.395 303.987,113.101 303.341,113.876 302.552 C 114.650 301.762,115.213 301.116,115.125 301.116 C 115.037 301.116,114.331 301.762,113.557 302.552 M268.072 306.619 L 267.464 307.337 268.162 306.747 C 268.555 306.415,269.029 306.262,269.248 306.398 C 269.495 306.551,269.554 306.504,269.408 306.269 C 269.075 305.730,268.753 305.814,268.072 306.619 M106.948 308.834 L 105.291 310.491 104.559 309.882 L 103.828 309.274 104.548 310.054 L 105.269 310.833 107.097 309.005 C 108.102 308.000,108.853 307.177,108.765 307.177 C 108.677 307.177,107.859 307.923,106.948 308.834 M77.352 311.643 C 78.216 312.520,78.995 313.238,79.083 313.238 C 79.171 313.238,78.535 312.520,77.671 311.643 C 76.807 310.766,76.029 310.048,75.941 310.048 C 75.853 310.048,76.488 310.766,77.352 311.643 M194.820 312.506 C 195.217 312.583,195.791 312.580,196.096 312.500 C 196.401 312.420,196.077 312.358,195.375 312.361 C 194.673 312.365,194.424 312.430,194.820 312.506 M205.821 312.501 C 206.128 312.581,206.631 312.581,206.938 312.501 C 207.245 312.420,206.994 312.355,206.380 312.355 C 205.766 312.355,205.514 312.420,205.821 312.501 M84.516 318.740 C 85.838 320.148,86.124 320.402,86.124 320.162 C 86.124 320.111,85.443 319.429,84.609 318.647 L 83.094 317.225 84.516 318.740 M297.284 323.046 L 293.301 327.113 297.368 323.131 C 301.146 319.431,301.580 318.979,301.351 318.979 C 301.304 318.979,299.474 320.809,297.284 323.046 M196.417 338.349 C 196.991 338.420,197.852 338.419,198.331 338.346 C 198.810 338.273,198.341 338.215,197.289 338.217 C 196.236 338.219,195.844 338.278,196.417 338.349 M194.467 343.142 C 194.385 343.274,195.058 343.340,195.963 343.290 C 198.896 343.127,199.253 342.999,196.909 342.951 C 195.647 342.924,194.548 343.010,194.467 343.142 M194.372 349.442 C 194.371 351.021,194.425 351.707,194.491 350.967 C 194.558 350.226,194.559 348.934,194.493 348.096 C 194.427 347.257,194.373 347.863,194.372 349.442 M189.548 350.877 C 189.548 351.491,189.613 351.742,189.694 351.435 C 189.774 351.128,189.774 350.626,189.694 350.319 C 189.613 350.012,189.548 350.263,189.548 350.877 M200.232 352.383 C 200.798 352.454,201.803 352.455,202.465 352.386 C 203.127 352.317,202.663 352.259,201.435 352.258 C 200.207 352.256,199.666 352.313,200.232 352.383 M188.441 364.500 C 188.838 364.576,189.412 364.573,189.717 364.493 C 190.022 364.414,189.697 364.351,188.995 364.355 C 188.293 364.358,188.044 364.424,188.441 364.500 M205.347 364.500 C 205.743 364.576,206.318 364.573,206.623 364.493 C 206.928 364.414,206.603 364.351,205.901 364.355 C 205.199 364.358,204.950 364.424,205.347 364.500 M195.784 364.829 C 196.711 364.893,198.147 364.893,198.974 364.827 C 199.801 364.762,199.043 364.709,197.289 364.710 C 195.534 364.711,194.857 364.764,195.784 364.829 " stroke="none" fill="#ec7c73" fill-rule="evenodd"></path></g></svg>